<?xml version="1.0" encoding="UTF-8" standalone="no"?>
<!-- Created with Inkscape (http://www.inkscape.org/) -->
<svg
   xmlns:dc="http://purl.org/dc/elements/1.1/"
   xmlns:cc="http://creativecommons.org/ns#"
   xmlns:rdf="http://www.w3.org/1999/02/22-rdf-syntax-ns#"
   xmlns:svg="http://www.w3.org/2000/svg"
   xmlns="http://www.w3.org/2000/svg"
   xmlns:sodipodi="http://sodipodi.sourceforge.net/DTD/sodipodi-0.dtd"
   xmlns:inkscape="http://www.inkscape.org/namespaces/inkscape"
   width="64px"
   height="64px"
   id="svg11490"
   sodipodi:version="0.32"
   inkscape:version="0.46"
   sodipodi:docname="2wd.svg"
   inkscape:output_extension="org.inkscape.output.svg.inkscape">
  <defs
     id="defs11492">
    <inkscape:perspective
       sodipodi:type="inkscape:persp3d"
       inkscape:vp_x="0 : 32 : 1"
       inkscape:vp_y="0 : 1000 : 0"
       inkscape:vp_z="64 : 32 : 1"
       inkscape:persp3d-origin="32 : 21.333333 : 1"
       id="perspective11498" />
  </defs>
  <sodipodi:namedview
     id="base"
     pagecolor="#ffffff"
     bordercolor="#666666"
     borderopacity="1.0"
     inkscape:pageopacity="0.0"
     inkscape:pageshadow="2"
     inkscape:zoom="5.5"
     inkscape:cx="-13.727273"
     inkscape:cy="32"
     inkscape:current-layer="layer2"
     showgrid="true"
     inkscape:document-units="px"
     inkscape:grid-bbox="true"
     inkscape:window-width="1920"
     inkscape:window-height="1147"
     inkscape:window-x="-4"
     inkscape:window-y="-4" />
  <metadata
     id="metadata11495">
    <rdf:RDF>
      <cc:Work
         rdf:about="">
        <dc:format>image/svg+xml</dc:format>
        <dc:type
           rdf:resource="http://purl.org/dc/dcmitype/StillImage" />
      </cc:Work>
    </rdf:RDF>
  </metadata>
  <g
     inkscape:groupmode="layer"
     id="layer2"
     inkscape:label="circle"
     style="display:inline" />
  <g
     id="layer1"
     inkscape:label="Layer 1"
     inkscape:groupmode="layer"
     style="display:inline">
    <g
       id="g11475"
       transform="matrix(1.2234504,0,0,1.2234504,-2281.1003,-2142.8387)"
       style="fill:#000000">
      <path
         id="path10691"
         d="M 1874.9108,1784.1272 C 1874.1627,1782.9293 1872.5788,1782.1272 1870.9614,1782.1272 C 1867.6721,1782.1272 1866.7062,1780.8116 1868.0931,1778.2203 C 1868.8496,1776.8068 1870.6773,1776.0794 1874.7518,1775.5703 C 1878.8667,1775.0562 1881.2417,1774.1013 1883.6374,1771.9979 C 1886.6101,1769.3878 1887.5816,1769.1272 1894.3378,1769.1272 C 1901.289,1769.1272 1901.9543,1769.3209 1904.6429,1772.1272 C 1906.2237,1773.7772 1908.2204,1775.1341 1909.08,1775.1425 C 1911.5036,1775.1663 1912.775,1776.3822 1913.508,1779.3772 C 1914.0935,1781.7695 1913.8846,1782.1272 1911.9025,1782.1272 C 1910.6493,1782.1272 1909.0619,1783.0272 1908.375,1784.1272 C 1907.688,1785.2272 1906.2456,1786.1272 1905.1696,1786.1272 C 1904.0936,1786.1272 1902.7316,1785.2272 1902.1429,1784.1272 C 1901.1852,1782.3377 1900.0491,1782.1272 1891.3483,1782.1272 C 1882.707,1782.1272 1881.4849,1782.3499 1880.375,1784.1272 C 1879.688,1785.2272 1878.4586,1786.1272 1877.6429,1786.1272 C 1876.8272,1786.1272 1875.5978,1785.2272 1874.9108,1784.1272 z"
         style="fill:#000000;fill-opacity:1" />
      <path
         id="path10689"
         d="M 1878.1429,1781.6272 C 1878.1429,1780.8022 1877.6929,1780.1272 1877.1429,1780.1272 C 1876.5929,1780.1272 1876.1429,1780.8022 1876.1429,1781.6272 C 1876.1429,1782.4522 1876.5929,1783.1272 1877.1429,1783.1272 C 1877.6929,1783.1272 1878.1429,1782.4522 1878.1429,1781.6272 z"
         style="fill:#000000;fill-opacity:1" />
      <path
         id="path10687"
         d="M 1906.1429,1782.1272 C 1906.1429,1781.5772 1905.6929,1781.1272 1905.1429,1781.1272 C 1904.5929,1781.1272 1904.1429,1781.5772 1904.1429,1782.1272 C 1904.1429,1782.6772 1904.5929,1783.1272 1905.1429,1783.1272 C 1905.6929,1783.1272 1906.1429,1782.6772 1906.1429,1782.1272 z"
         style="fill:#000000;fill-opacity:1" />
      <path
         id="path10685"
         d="M 1886.1429,1774.0682 C 1886.1429,1773.4857 1885.6929,1773.2873 1885.1429,1773.6272 C 1884.5929,1773.9671 1884.1429,1774.4437 1884.1429,1774.6862 C 1884.1429,1774.9288 1884.5929,1775.1272 1885.1429,1775.1272 C 1885.6929,1775.1272 1886.1429,1774.6506 1886.1429,1774.0682 z"
         style="fill:#000000;fill-opacity:1" />
      <path
         id="path10683"
         d="M 1893.1429,1772.6272 C 1893.1429,1770.6272 1892.6429,1770.1272 1890.6429,1770.1272 C 1888.6429,1770.1272 1888.1429,1770.6272 1888.1429,1772.6272 C 1888.1429,1774.6272 1888.6429,1775.1272 1890.6429,1775.1272 C 1892.6429,1775.1272 1893.1429,1774.6272 1893.1429,1772.6272 z"
         style="fill:#000000;fill-opacity:1" />
      <path
         id="path10681"
         d="M 1901.1429,1772.6272 C 1901.1429,1770.5161 1900.6762,1770.1272 1898.1429,1770.1272 C 1895.6096,1770.1272 1895.1429,1770.5161 1895.1429,1772.6272 C 1895.1429,1774.7383 1895.6096,1775.1272 1898.1429,1775.1272 C 1900.6762,1775.1272 1901.1429,1774.7383 1901.1429,1772.6272 z"
         style="fill:#000000;fill-opacity:1" />
    </g>
  </g>
</svg>
