<?xml version="1.0" encoding="UTF-8" standalone="no"?>
<!-- Created with Inkscape (http://www.inkscape.org/) -->
<svg
   xmlns:dc="http://purl.org/dc/elements/1.1/"
   xmlns:cc="http://creativecommons.org/ns#"
   xmlns:rdf="http://www.w3.org/1999/02/22-rdf-syntax-ns#"
   xmlns:svg="http://www.w3.org/2000/svg"
   xmlns="http://www.w3.org/2000/svg"
   xmlns:sodipodi="http://sodipodi.sourceforge.net/DTD/sodipodi-0.dtd"
   xmlns:inkscape="http://www.inkscape.org/namespaces/inkscape"
   width="64px"
   height="64px"
   id="svg2429"
   sodipodi:version="0.32"
   inkscape:version="0.46"
   sodipodi:docname="comms_bus.svg"
   inkscape:output_extension="org.inkscape.output.svg.inkscape">
  <defs
     id="defs2431">
    <inkscape:perspective
       sodipodi:type="inkscape:persp3d"
       inkscape:vp_x="0 : 32 : 1"
       inkscape:vp_y="0 : 1000 : 0"
       inkscape:vp_z="64 : 32 : 1"
       inkscape:persp3d-origin="32 : 21.333333 : 1"
       id="perspective2437" />
  </defs>
  <sodipodi:namedview
     id="base"
     pagecolor="#ffffff"
     bordercolor="#666666"
     borderopacity="1.0"
     inkscape:pageopacity="0.0"
     inkscape:pageshadow="2"
     inkscape:zoom="7.7781746"
     inkscape:cx="31.561775"
     inkscape:cy="23.585564"
     inkscape:current-layer="layer2"
     showgrid="true"
     inkscape:document-units="px"
     inkscape:grid-bbox="true"
     inkscape:window-width="1920"
     inkscape:window-height="1147"
     inkscape:window-x="-4"
     inkscape:window-y="-4" />
  <metadata
     id="metadata2434">
    <rdf:RDF>
      <cc:Work
         rdf:about="">
        <dc:format>image/svg+xml</dc:format>
        <dc:type
           rdf:resource="http://purl.org/dc/dcmitype/StillImage" />
      </cc:Work>
    </rdf:RDF>
  </metadata>
  <g
     inkscape:groupmode="layer"
     id="layer2"
     inkscape:label="circle" />
  <g
     id="layer1"
     inkscape:label="Layer 1"
     inkscape:groupmode="layer">
    <path
       id="path2384"
       d="M 16.199196,44.246507 C 15.108936,43.966521 14.16483,43.015798 13.690825,41.720549 C 13.407309,40.945828 13.407309,39.316072 13.690825,38.541352 C 14.083627,37.467997 14.799177,36.630768 15.693064,36.198635 C 16.301241,35.90462 17.402745,35.897237 18.024255,36.183003 C 19.432918,36.830699 20.311104,38.346776 20.311104,40.13095 C 20.311104,41.439411 19.730912,42.843397 18.899782,43.546154 C 18.193593,44.143269 17.001263,44.45248 16.199196,44.246507 z M 42.656578,43.420259 C 40.657718,42.474637 39.84317,39.575811 40.956145,37.368732 C 41.622486,36.047351 42.622952,35.37555 43.930507,35.371482 C 45.311749,35.367187 46.55806,36.410226 47.109611,38.032081 C 47.264739,38.488243 47.311328,38.836005 47.311328,39.537793 C 47.311328,40.239577 47.264739,40.587343 47.109611,41.043502 C 46.376694,43.198674 44.408617,44.249112 42.656578,43.420259 z M 9.6189456,39.846305 C 9.404221,39.740017 9.1857685,39.573138 9.1334933,39.475464 C 9.0696834,39.356232 9.0504238,37.702928 9.074892,34.444422 L 9.1113327,29.590974 L 9.3520507,28.601971 C 9.4844464,28.05802 9.7970015,26.88767 10.046614,26.001197 C 10.29623,25.114723 10.568681,24.064916 10.652061,23.668293 C 10.889707,22.537859 11.580902,21.264187 12.427321,20.39701 L 13.117614,19.689783 L 33.709171,19.689783 C 52.434796,19.689783 54.313914,19.70297 54.446254,19.835311 C 54.526296,19.915352 54.66269,20.11041 54.749354,20.268774 C 54.895203,20.535293 54.908745,21.244125 54.931431,29.799827 C 54.94491,34.883543 54.922564,39.17174 54.881774,39.329154 C 54.840984,39.486572 54.693574,39.700573 54.554196,39.804719 C 54.313726,39.984396 54.166836,39.995491 51.678282,40.021915 C 50.235908,40.037233 48.85289,40.015867 48.60491,39.974437 L 48.154036,39.899111 L 48.098724,38.897153 C 47.983089,36.802441 47.103445,35.343187 45.472329,34.540194 C 44.911561,34.264128 44.810443,34.244989 43.912588,34.244989 C 43.020814,34.244989 42.90841,34.265868 42.333087,34.538382 C 40.727444,35.298917 39.706515,37.003423 39.691236,38.94912 C 39.686448,39.558519 39.649951,39.79586 39.548005,39.880493 C 39.440895,39.969414 37.438258,39.994068 30.322472,39.994068 L 21.233749,39.994068 L 21.167948,39.138085 C 21.048259,37.581109 20.527664,36.421641 19.556689,35.549507 C 16.900849,33.16402 13.07851,35.081012 12.747669,38.964387 C 12.646293,40.154356 12.799801,40.039708 11.308005,40.039623 C 10.169134,40.039562 9.9613234,40.015776 9.6189456,39.846305 z M 28.222469,35.954585 L 28.488538,35.656566 L 28.488538,30.135727 L 28.488538,24.614884 L 28.176377,24.274017 L 27.864217,23.933151 L 26.341019,23.904062 C 24.854503,23.875673 24.812367,23.880068 24.591267,24.086572 C 24.09407,24.550946 24.10824,24.372629 24.108889,30.156787 C 24.109643,36.890933 23.891309,36.312941 26.42018,36.275405 L 27.956401,36.252606 L 28.222469,35.954585 z M 20.549334,29.558946 C 20.971233,29.24812 21.002834,29.074245 21.004265,27.05571 C 21.005685,25.051083 20.955995,24.750461 20.557332,24.351798 C 20.372611,24.167076 20.283521,24.161288 17.625018,24.161288 L 14.883215,24.161288 L 14.654203,24.3903 C 14.216378,24.828124 14.161469,25.116011 14.161469,26.973652 C 14.161469,29.030933 14.273136,29.482343 14.845883,29.740363 C 14.948746,29.786703 16.183284,29.801733 17.674794,29.774803 C 20.056631,29.731798 20.344002,29.710219 20.549334,29.558946 z M 50.546387,29.110332 C 50.887353,28.915386 50.963743,28.385699 50.91497,26.55464 C 50.865481,24.696655 50.841717,24.624053 50.216414,24.420267 C 49.784503,24.279508 35.675281,24.200334 33.712036,24.327652 C 31.542288,24.468362 31.543766,24.466638 31.549608,26.853317 C 31.554753,28.955009 31.598739,29.063759 32.503767,29.212303 C 32.629242,29.232899 36.694662,29.244395 41.538035,29.23785 C 48.461088,29.228497 50.387406,29.201229 50.546387,29.110332 z"
       style="fill:#000000" />
  </g>
</svg>
