<?xml version="1.0" encoding="UTF-8" standalone="no"?>
<!-- Created with Inkscape (http://www.inkscape.org/) -->
<svg
   xmlns:dc="http://purl.org/dc/elements/1.1/"
   xmlns:cc="http://creativecommons.org/ns#"
   xmlns:rdf="http://www.w3.org/1999/02/22-rdf-syntax-ns#"
   xmlns:svg="http://www.w3.org/2000/svg"
   xmlns="http://www.w3.org/2000/svg"
   xmlns:sodipodi="http://sodipodi.sourceforge.net/DTD/sodipodi-0.dtd"
   xmlns:inkscape="http://www.inkscape.org/namespaces/inkscape"
   width="64px"
   height="64px"
   id="svg4035"
   sodipodi:version="0.32"
   inkscape:version="0.46"
   sodipodi:docname="dozer.svg"
   inkscape:output_extension="org.inkscape.output.svg.inkscape">
  <defs
     id="defs4037">
    <inkscape:perspective
       sodipodi:type="inkscape:persp3d"
       inkscape:vp_x="0 : 32 : 1"
       inkscape:vp_y="0 : 1000 : 0"
       inkscape:vp_z="64 : 32 : 1"
       inkscape:persp3d-origin="32 : 21.333333 : 1"
       id="perspective4043" />
  </defs>
  <sodipodi:namedview
     id="base"
     pagecolor="#ffffff"
     bordercolor="#666666"
     borderopacity="1.0"
     inkscape:pageopacity="0.0"
     inkscape:pageshadow="2"
     inkscape:zoom="5.5"
     inkscape:cx="-23.454545"
     inkscape:cy="32"
     inkscape:current-layer="layer2"
     showgrid="true"
     inkscape:document-units="px"
     inkscape:grid-bbox="true"
     inkscape:window-width="1920"
     inkscape:window-height="1147"
     inkscape:window-x="-4"
     inkscape:window-y="-4" />
  <metadata
     id="metadata4040">
    <rdf:RDF>
      <cc:Work
         rdf:about="">
        <dc:format>image/svg+xml</dc:format>
        <dc:type
           rdf:resource="http://purl.org/dc/dcmitype/StillImage" />
      </cc:Work>
    </rdf:RDF>
  </metadata>
  <g
     inkscape:groupmode="layer"
     id="layer2"
     inkscape:label="circle" />
  <g
     id="layer1"
     inkscape:label="Layer 1"
     inkscape:groupmode="layer">
    <g
       id="g5005"
       transform="matrix(0.3044261,0,0,0.3044261,-203.98641,-206.01531)"
       style="fill:#000000">
      <path
         id="path3890"
         d="M 706.90934,823.72713 C 699.80384,821.34628 695.9928,815.5935 696.60783,808.17698 C 697.08884,802.37664 699.24984,798.74053 703.90934,795.89139 C 706.70194,794.18381 710.02037,794.05699 751.90934,794.05699 C 801.66281,794.05699 798.85167,793.7017 803.96801,800.63652 C 808.67998,807.02322 806.57879,817.49788 799.64173,822.20352 C 797.09382,823.93185 793.93863,824.06848 752.90934,824.22713 C 728.70934,824.32071 708.00934,824.09571 706.90934,823.72713 z"
         style="fill:#000000;fill-opacity:1" />
      <path
         id="path3888"
         d="M 830.15934,818.8237 C 816.44256,814.29514 813.40934,812.95539 813.40934,811.42536 C 813.40934,810.01606 814.14646,809.55699 816.40934,809.55699 C 819.79053,809.55699 820.0526,808.7016 817.92936,804.59571 C 816.8585,802.5249 815.91193,801.87431 814.50511,802.2422 C 813.07961,802.61497 812.1392,801.93527 810.98059,799.69476 C 808.73026,795.34312 804.711,791.59842 799.98851,789.45358 C 796.21543,787.73993 792.56609,787.59927 751.35551,787.57895 L 706.80167,787.55699 L 703.60551,784.25938 L 700.40934,780.96178 L 700.40934,768.25938 L 700.40934,755.55699 L 703.90934,755.55699 C 707.13156,755.55699 707.40934,755.31889 707.40934,752.55699 C 707.40934,749.73619 707.64243,749.55699 711.31151,749.55699 C 714.7482,749.55699 715.33844,749.91486 716.2595,752.55699 C 717.30473,755.55535 717.3097,755.55699 725.35732,755.55699 L 733.40934,755.55699 L 733.40934,758.54445 C 733.40934,760.9423 734.19878,762.03025 737.40934,764.05699 L 741.40934,766.58208 L 741.40934,773.56953 L 741.40934,780.55699 L 748.2869,780.55699 C 752.87824,780.55699 755.54105,780.10321 756.29738,779.1919 C 757.22825,778.07027 759.25991,766.60671 759.37846,761.80699 C 759.40125,760.88462 762.29247,760.55699 770.40934,760.55699 L 781.40934,760.55699 L 781.40934,751.7313 C 781.40934,743.7139 781.62863,742.6996 783.80384,740.6561 C 785.47244,739.08853 786.41612,738.75895 786.91671,739.56892 C 787.31181,740.2082 787.13428,741.23205 786.52221,741.84412 C 785.87367,742.49266 785.40934,746.62866 785.40934,751.75699 L 785.40934,760.55699 L 788.90934,760.55699 L 792.40934,760.55699 L 792.40934,755.55699 C 792.40934,750.98818 792.61019,750.55699 794.7384,750.55699 C 796.55436,750.55699 797.58339,751.65851 799.40934,755.55699 L 801.75121,760.55699 L 810.58028,760.55699 L 819.40934,760.55699 L 819.40934,777.91767 L 819.40934,795.27835 L 834.90934,788.97886 C 850.30465,782.72191 853.41858,782.38133 847.90934,787.55699 C 845.4906,789.82928 845.40934,790.3294 845.40934,802.94345 L 845.40934,815.98129 L 849.61755,820.26914 L 853.82576,824.55699 L 850.36755,824.45533 C 848.46553,824.39942 839.37184,821.86519 830.15934,818.8237 z"
         style="fill:#000000;fill-opacity:1" />
      <path
         id="path3886"
         d="M 836.40934,801.15728 L 836.40934,793.75757 L 828.15934,796.83688 C 823.62184,798.5305 819.80168,799.98053 819.67009,800.05917 C 819.53851,800.13781 820.16927,802.08199 821.07178,804.37957 L 822.71272,808.55699 L 829.56103,808.55699 L 836.40934,808.55699 L 836.40934,801.15728 z"
         style="fill:#000000;fill-opacity:1" />
    </g>
  </g>
</svg>
