<?xml version="1.0" encoding="UTF-8" standalone="no"?>
<!-- Created with Inkscape (http://www.inkscape.org/) -->
<svg
   xmlns:dc="http://purl.org/dc/elements/1.1/"
   xmlns:cc="http://creativecommons.org/ns#"
   xmlns:rdf="http://www.w3.org/1999/02/22-rdf-syntax-ns#"
   xmlns:svg="http://www.w3.org/2000/svg"
   xmlns="http://www.w3.org/2000/svg"
   xmlns:sodipodi="http://sodipodi.sourceforge.net/DTD/sodipodi-0.dtd"
   xmlns:inkscape="http://www.inkscape.org/namespaces/inkscape"
   id="svg2"
   sodipodi:version="0.32"
   inkscape:version="0.46"
   width="64"
   height="64"
   version="1.0"
   sodipodi:docname="float.svg"
   inkscape:output_extension="org.inkscape.output.svg.inkscape"
   inkscape:export-filename="C:\Documents and Settings\dalesm\Desktop\SVG Creation 2\Float.png"
   inkscape:export-xdpi="720"
   inkscape:export-ydpi="720">
  <metadata
     id="metadata7">
    <rdf:RDF>
      <cc:Work
         rdf:about="">
        <dc:format>image/svg+xml</dc:format>
        <dc:type
           rdf:resource="http://purl.org/dc/dcmitype/StillImage" />
      </cc:Work>
    </rdf:RDF>
  </metadata>
  <defs
     id="defs5">
    <inkscape:perspective
       sodipodi:type="inkscape:persp3d"
       inkscape:vp_x="0 : 526.18109 : 1"
       inkscape:vp_y="0 : 1000 : 0"
       inkscape:vp_z="744.09448 : 526.18109 : 1"
       inkscape:persp3d-origin="372.04724 : 350.78739 : 1"
       id="perspective9" />
  </defs>
  <sodipodi:namedview
     inkscape:window-height="1147"
     inkscape:window-width="1920"
     inkscape:pageshadow="2"
     inkscape:pageopacity="0.0"
     guidetolerance="10.0"
     gridtolerance="10.0"
     objecttolerance="10.0"
     borderopacity="1.0"
     bordercolor="#666666"
     pagecolor="#ffffff"
     id="base"
     showgrid="false"
     inkscape:zoom="7.3359375"
     inkscape:cx="57.763952"
     inkscape:cy="13.893113"
     inkscape:window-x="-4"
     inkscape:window-y="-4"
     inkscape:current-layer="layer3"
     showguides="true"
     inkscape:guide-bbox="true" />
  <g
     inkscape:groupmode="layer"
     id="layer3"
     inkscape:label="circle" />
  <g
     inkscape:groupmode="layer"
     id="layer4"
     inkscape:label="symbol">
    <path
       id="path2464"
       d="M 8.8044477,39.972867 C 8.1297107,39.298131 7.8626834,38.825097 7.8626834,38.30454 C 7.8626834,37.367587 7.5799763,37.042978 7.0778103,36.989458 C 5.9143715,36.865478 5.1422907,36.837035 5.1394703,36.852853 L 5.2035999,34.850257 L 18.526281,34.850257 C 27.146414,34.850257 28.356069,34.847887 28.453069,34.690935 L 32.430551,32.173653 L 36.62505,32.238435 L 42.738154,32.303217 L 42.812088,33.455447 L 42.886021,34.607677 L 41.114066,34.61139 C 39.37106,34.42013 38.465953,34.829526 39.555794,35.660782 C 40.29461,36.224307 40.62533,36.305234 42.176181,36.301992 C 43.152344,36.299949 44.085621,36.212776 44.250125,36.108289 C 44.472111,35.96728 44.565921,34.264064 44.613985,29.501835 L 44.678752,23.085373 L 49.275093,23.085373 L 55.79003,23.085373 L 56.964767,25.996268 L 58.139513,28.907163 L 58.160178,31.939352 C 58.174843,34.090996 58.281513,35.14765 58.527513,35.577976 C 59.254376,36.849486 58.744227,38.003731 57.4554,38.003731 C 56.896047,38.003731 56.717877,38.166449 56.404935,38.963122 C 55.973068,40.062543 54.782979,40.912813 53.676014,40.912813 C 52.637402,40.912813 51.400861,40.07371 50.989835,39.089999 L 50.604957,39.701748 L 46.307693,39.698036 C 43.944201,39.695993 41.888698,39.614125 41.739908,39.516103 C 41.591117,39.418092 41.392735,39.092283 41.299051,38.792098 C 41.06894,38.054727 40.793401,38.10561 40.443619,38.950066 C 39.982701,40.062811 39.121846,40.716693 37.962402,40.834726 C 36.603368,40.973077 35.541849,40.323129 34.955206,38.993484 L 34.518529,38.003731 L 32.666177,37.872964 C 32.62388,37.872964 32.590934,36.71867 32.779839,36.299545 C 32.809251,36.298294 33.969223,36.162132 35.496203,36.186493 C 36.543872,35.304939 36.622926,34.491769 34.424475,34.546005 C 34.336214,34.54812 33.406865,34.532217 33.244727,34.597313 L 29.981517,37.033423 C 29.087388,37.20293 27.479946,37.087572 27.175943,37.336649 C 26.710367,39.158157 26.34492,39.857434 25.595419,40.360925 C 25.142088,40.665456 24.432559,40.914214 24.018689,40.913714 C 22.49751,40.911882 20.961726,39.395059 20.961726,37.894486 C 20.961726,37.506437 20.826155,37.276002 20.597866,37.276002 C 20.341482,37.276002 20.234007,37.535226 20.234007,38.153556 C 20.234007,38.849492 20.039108,39.226 19.292243,39.972867 C 18.502149,40.76296 18.189055,40.914626 17.348078,40.914626 C 16.012119,40.914626 14.663023,39.737137 14.442154,38.378349 C 14.244393,37.161672 13.854345,37.149068 13.658649,38.353033 C 13.433508,39.738106 12.096952,40.914626 10.748605,40.914626 C 9.9076347,40.914626 9.5945407,40.76296 8.8044477,39.972867 z"
       style="fill:#000000"
       sodipodi:nodetypes="cssccccccccccssscccccccsssscccsssscccccscccssssssssssc" />
  </g>
</svg>
