<?xml version="1.0" encoding="UTF-8" standalone="no"?>
<!-- Created with Inkscape (http://www.inkscape.org/) -->
<svg
   xmlns:dc="http://purl.org/dc/elements/1.1/"
   xmlns:cc="http://creativecommons.org/ns#"
   xmlns:rdf="http://www.w3.org/1999/02/22-rdf-syntax-ns#"
   xmlns:svg="http://www.w3.org/2000/svg"
   xmlns="http://www.w3.org/2000/svg"
   xmlns:sodipodi="http://sodipodi.sourceforge.net/DTD/sodipodi-0.dtd"
   xmlns:inkscape="http://www.inkscape.org/namespaces/inkscape"
   width="64px"
   height="64px"
   id="svg2395"
   sodipodi:version="0.32"
   inkscape:version="0.46"
   sodipodi:docname="grader.svg"
   inkscape:output_extension="org.inkscape.output.svg.inkscape">
  <defs
     id="defs2397">
    <filter
       inkscape:collect="always"
       id="filter3821">
      <feGaussianBlur
         inkscape:collect="always"
         stdDeviation="1.9798115"
         id="feGaussianBlur3823" />
    </filter>
    <inkscape:perspective
       sodipodi:type="inkscape:persp3d"
       inkscape:vp_x="0 : 32 : 1"
       inkscape:vp_y="0 : 1000 : 0"
       inkscape:vp_z="64 : 32 : 1"
       inkscape:persp3d-origin="32 : 21.333333 : 1"
       id="perspective2403" />
  </defs>
  <sodipodi:namedview
     id="base"
     pagecolor="#ffffff"
     bordercolor="#666666"
     borderopacity="1.0"
     inkscape:pageopacity="0.0"
     inkscape:pageshadow="2"
     inkscape:zoom="5.5"
     inkscape:cx="33.647152"
     inkscape:cy="18.613504"
     inkscape:current-layer="layer2"
     showgrid="true"
     inkscape:document-units="px"
     inkscape:grid-bbox="true"
     inkscape:window-width="1920"
     inkscape:window-height="1147"
     inkscape:window-x="-4"
     inkscape:window-y="-4" />
  <metadata
     id="metadata2400">
    <rdf:RDF>
      <cc:Work
         rdf:about="">
        <dc:format>image/svg+xml</dc:format>
        <dc:type
           rdf:resource="http://purl.org/dc/dcmitype/StillImage" />
      </cc:Work>
    </rdf:RDF>
  </metadata>
  <g
     inkscape:groupmode="layer"
     id="layer2"
     inkscape:label="circle" />
  <g
     id="layer1"
     inkscape:label="Layer 1"
     inkscape:groupmode="layer">
    <path
       id="path2987-9"
       style="fill:#000000;fill-opacity:1;stroke:none;filter:url(#filter3821)"
       d="M 169.88398,113.74908 C 147.4491,113.74908 129.26925,130.35076 129.26925,150.84245 C 129.26925,171.33414 147.4491,187.9623 169.88398,187.9623 C 192.31895,187.9623 210.49871,171.33414 210.49871,150.84245 C 210.49871,130.35076 192.31895,113.74908 169.88398,113.74908 z M 288.47618,111.7218 C 266.04129,111.7218 247.86145,128.32348 247.86145,148.81525 C 247.86145,169.30693 266.04129,185.9351 288.47618,185.9351 C 310.91114,185.9351 329.09091,169.30693 329.09091,148.81525 C 329.09091,128.32348 310.91114,111.7218 288.47618,111.7218 z M 24.57122,-22.76128 L -0.47071002,-21.54904 C -6.85847,-17.6984 -2.08927,-9.79056 -1.20431,0.39857 C 0.54264998,20.51561 -0.83711002,21.31017 -5.09615,25.37673 C -7.96311,27.66665 -11.45231,29.46713 -15.33623,30.95938 C -17.94831,30.94338 -20.59271,30.93538 -22.99239,30.95938 C -41.21352,36.22338 -84.321048,29.45649 -86.410808,40.68898 L -88.611928,57.24538 L -94.322088,73.67419 C -102.20033,80.97523 -102.31529,81.01267 -116.99866,87.16195 C -130.2821,90.50387 -125.52506,88.25411 -136.03162,91.00523 C -138.91259,91.00523 -169.06355,77.45387 -179.38572,85.24083 C -189.23172,92.66859 -176.0582,103.59132 -168.91675,108.95356 C -142.22531,126.16524 -139.66915,135.64285 -162.93275,153.59477 C -168.61788,158.14069 -186.26372,174.16182 -181.58644,182.00318 C -172.00027,189.76038 -147.00747,178.18518 -138.41051,174.90038 C -131.92186,173.28438 -109.51274,162.46909 -106.06602,163.43085 C -107.12298,159.59709 -115.88562,146.92701 -109.42834,132.49996 C -98.739928,108.61956 -87.676488,96.96475 -58.34112,96.96475 C -36.69424,96.96475 -28.20631,105.2626 -15.87727,117.23292 C 9.91026,119.87884 34.7769,116.40196 42.94435,119.61124 C 43.85467,122.52636 50.30595,142.87941 45.75163,146.66301 L 29.0357,134.9874 L 1.05889,126.3742 C -0.88775002,135.21012 9.58698,141.70773 13.85106,149.37453 C 15.67434,157.01477 14.96754,160.51597 9.79962,168.16397 C 4.31754,171.4875 -11.93615,187.0967 -5.00223,187.71902 C 46.79219,185.79278 56.67819,181.57246 66.13611,175.7563 C 74.65252,171.49118 72.09795,160.11789 73.7922,152.34133 C 74.2554,149.01157 76.5354,131.10076 74.3026,120.4726 C 65.78851,89.11043 74.3046,96.08243 77.27444,92.94867 L 87.84164,20.83889 C 70.44339,19.89041 42.48587,22.50289 29.51418,20.71969 C 28.1093,10.35081 27.48506,-12.73016 24.56962,-22.7608 L 24.56962,-22.76072 L 24.56962,-22.76128 L 24.57162,-22.76128 L 24.57122,-22.76128 z M -57.0748,107.9806 C -79.50977,107.9806 -97.689528,124.58228 -97.689528,145.07405 C -97.689528,165.56573 -79.50977,182.1939 -57.0748,182.1939 C -34.63992,182.1939 -16.46007,165.56573 -16.46007,145.07405 C -16.46007,124.58228 -34.63992,107.9806 -57.0748,107.9806 L -57.0748,107.9806 z M 102.3262,-91.96178 L 102.3262,-91.89778 C 86.14492,-91.33218 85.41924,-89.22354 84.717,-83.92266 C 84.0834,-48.16985 86.69484,-14.06192 87.84332,20.83881 C 84.9254,22.37873 81.5446,23.50001 77.82652,24.28417 C 78.9034,47.16098 76.99612,70.08771 77.27612,92.94859 C 96.3862,116.92868 81.9726,133.49796 102.3262,138.87109 C 106.64732,138.79909 111.52429,138.45349 115.53301,138.16949 C 119.95229,115.33588 142.62606,97.94283 169.95542,97.94283 C 200.45255,97.94283 225.17536,119.59428 225.17536,146.30413 C 225.17536,149.37533 224.84336,160.33109 224.21832,163.24333 C 226.52648,164.71997 228.09296,168.04181 232.35296,164.61509 C 234.86584,164.61109 236.2988,164.99429 237.07424,165.34869 C 235.87504,164.04933 233.60936,159.98701 233.11864,149.20701 C 233.11864,118.5106 259.93961,93.60427 293.02794,93.60427 C 302.86906,93.60427 312.17482,95.82843 320.36667,99.72923 L 321.80227,76.88843 C 323.56851,48.60786 323.52307,47.9009 319.15451,33.3441 C 315.08258,19.77561 314.17098,18.30833 308.21258,15.32025 C 303.30786,12.86057 297.61066,12.08753 285.08466,12.06633 C 261.74857,12.02633 259.25633,9.80177 252.32273,-16.38896 C 251.28921,-20.29312 251.07953,-29.60624 251.11057,-36.13544 C 251.13457,-41.09232 251.20737,-45.93625 249.86641,-46.12033 C 246.44128,-46.25553 239.33552,-45.47633 237.96752,-45.96033 C 236.396,-46.51713 233.502,-40.74848 236.56384,-21.65208 C 237.66152,-14.8056 237.99536,-6.13272 237.29744,-2.35223 L 236.02144,4.50641 L 225.20712,3.51745 C 209.03687,1.98281 207.95679,1.29817 208.61887,-7.23304 C 209.12127,-13.70504 212.28047,-14.17024 206.06679,-18.17488 C 203.52407,-19.81368 193.18207,-20.06952 190.88207,-19.48288 C 187.30575,-18.57048 191.00207,-16.25688 191.32847,-10.58256 C 191.67967,-4.48655 191.36847,-3.90799 186.76671,-3.37303 C 173.27486,-1.80583 166.9555,-10.446 168.90238,-27.93648 C 170.46902,-63.20849 171.68158,-74.45882 163.9259,-90.46162 C 139.62765,-90.96162 119.92981,-91.5225 103.56996,-91.92906 L 103.56996,-91.96106 C 103.39956,-91.95606 103.25876,-91.93706 103.09156,-91.92906 C 102.86116,-91.93506 102.55556,-91.95306 102.32596,-91.96106 L 102.32596,-91.96114 L 102.32604,-91.96214 L 102.32604,-91.9623 L 102.3262,-91.96178 L 102.3262,-91.96178 z M 246.50648,166.91501 C 247.31968,167.79605 247.59473,167.41181 246.50648,166.91501 z"
       sodipodi:nodetypes="csssccssscccsccccccccscccccsscccccccccccccccccccssscccccccccssccccsccssssscsscccsssssccccsccccccc"
       transform="matrix(9.2801191e-2,0,0,9.2801191e-2,25.217077,27.545543)" />
  </g>
</svg>
