<?xml version="1.0" encoding="UTF-8" standalone="no"?>
<!-- Created with Inkscape (http://www.inkscape.org/) -->
<svg
   xmlns:dc="http://purl.org/dc/elements/1.1/"
   xmlns:cc="http://creativecommons.org/ns#"
   xmlns:rdf="http://www.w3.org/1999/02/22-rdf-syntax-ns#"
   xmlns:svg="http://www.w3.org/2000/svg"
   xmlns="http://www.w3.org/2000/svg"
   xmlns:sodipodi="http://sodipodi.sourceforge.net/DTD/sodipodi-0.dtd"
   xmlns:inkscape="http://www.inkscape.org/namespaces/inkscape"
   id="svg2"
   sodipodi:version="0.32"
   inkscape:version="0.46"
   width="64"
   height="64"
   version="1.0"
   sodipodi:docname="heavy_duty.svg"
   inkscape:output_extension="org.inkscape.output.svg.inkscape"
   inkscape:export-filename="C:\Documents and Settings\dalesm\Desktop\SVG Creation 2\HeavyDuty.png"
   inkscape:export-xdpi="720"
   inkscape:export-ydpi="720">
  <metadata
     id="metadata7">
    <rdf:RDF>
      <cc:Work
         rdf:about="">
        <dc:format>image/svg+xml</dc:format>
        <dc:type
           rdf:resource="http://purl.org/dc/dcmitype/StillImage" />
      </cc:Work>
    </rdf:RDF>
  </metadata>
  <defs
     id="defs5">
    <inkscape:perspective
       sodipodi:type="inkscape:persp3d"
       inkscape:vp_x="0 : 526.18109 : 1"
       inkscape:vp_y="0 : 1000 : 0"
       inkscape:vp_z="744.09448 : 526.18109 : 1"
       inkscape:persp3d-origin="372.04724 : 350.78739 : 1"
       id="perspective9" />
  </defs>
  <sodipodi:namedview
     inkscape:window-height="1147"
     inkscape:window-width="1920"
     inkscape:pageshadow="2"
     inkscape:pageopacity="0.0"
     guidetolerance="10.0"
     gridtolerance="10.0"
     objecttolerance="10.0"
     borderopacity="1.0"
     bordercolor="#666666"
     pagecolor="#ffffff"
     id="base"
     showgrid="false"
     inkscape:zoom="10.374582"
     inkscape:cx="37.598624"
     inkscape:cy="24.871468"
     inkscape:window-x="0"
     inkscape:window-y="23"
     inkscape:current-layer="layer1" />
  <g
     inkscape:groupmode="layer"
     id="layer2"
     inkscape:label="circle" />
  <g
     inkscape:groupmode="layer"
     id="layer1"
     inkscape:label="symbol">
    <g
       id="g2394"
       transform="matrix(0.83906,0,0,0.83906,4.8609106,4.9397472)">
      <path
         id="path2396"
         d="M 57.763946,45.245686 C 60.520397,43.854968 60.995444,38.259757 58.512547,36.428473 C 57.079185,35.371283 52.971214,35.542176 51.517306,36.719479 C 50.748346,37.342145 50.155704,38.631355 49.956829,40.114073 C 49.672771,42.231892 49.834589,42.703131 51.374771,44.243313 C 53.270011,46.138552 55.348074,46.464572 57.763946,45.245686 z"
         style="fill:#000000" />
      <path
         id="path2398"
         d="M 17.617659,45.580878 C 19.137129,45.28738 21.193741,42.839146 21.193741,41.323838 C 21.193741,40.728677 20.829255,39.369387 20.38377,38.303194 C 19.769128,36.832147 19.069707,36.225476 17.483462,35.787491 C 14.940405,35.085321 13.216168,35.656661 11.572618,37.746094 C 10.13184,39.577749 10.021106,41.516905 11.250174,43.392704 C 12.022993,44.572175 14.981887,46.135715 16.003073,45.904235 C 16.191535,45.861516 16.918097,45.716006 17.617659,45.580878 z"
         style="fill:#000000" />
      <path
         id="path2400"
         d="M 43.1535,40.257296 L 46.253198,40.257296 L 48.924574,38.175213 C 52.129582,32.319514 58.274388,32.323918 61.471249,38.184206 C 63.492987,41.890332 64.042068,40.950889 63.997539,33.86188 C 63.960475,27.961381 63.810745,27.103314 62.135564,23.191486 C 60.73536,19.92177 59.985925,18.84627 58.896332,18.542918 C 58.116672,18.325853 51.647937,18.122672 46.393548,18.091402 L 46.289329,18.03455 L 46.289329,26.502821 L 46.289329,34.971092 L 32.83987,34.971092 C 25.442668,35.148904 21.564814,34.840297 21.434018,34.971092 C 21.303223,35.101889 21.644807,37.160659 22.193095,38.465209 L 23.189981,40.257296 L 28.037992,40.257296 C 30.704398,40.188378 36.251598,40.347829 43.1535,40.257296 z"
         style="fill:#000000" />
      <path
         id="path2402"
         d="M 55.008353,28.496202 C 52.4193,28.185288 49.865882,27.910656 49.384158,26.64751 C 49.072984,25.831566 49.185084,24.073175 49.384158,22.739972 L 49.384158,20.315966 L 54.234179,20.372819 C 58.642794,20.466544 59.514141,20.927548 60.611299,23.746766 C 62.651223,28.988484 62.659992,28.871863 60.226387,28.866322 C 59.028892,28.863595 56.680777,28.697042 55.008353,28.496202 z"
         style="fill:#000000" />
      <path
         id="path2404"
         d="M 9.4747644,38.049663 L 10.94658,35.145176 L 5.4732894,35.145176 L -8.4957713e-08,35.145176 L 0.39756512,36.998828 C 0.94025172,39.529093 2.8772319,40.022757 3.3638684,39.967471 C 3.6393044,39.93618 6.6773704,39.956082 6.7559764,39.967471 C 7.0345544,40.007837 8.3990024,39.250068 9.4747644,38.049663 z"
         style="fill:#000000" />
      <path
         id="path2406"
         d="M 44.007911,29.726811 L 44.007911,25.449154 L 39.477419,25.449154 C 35.570133,25.449154 34.835293,25.289775 34.135391,24.290525 C 32.943389,22.588704 32.508758,22.027029 25.471399,22.027029 C 18.434037,22.027029 15.717992,22.588704 14.525987,24.290525 C 13.86506,25.234131 13.085368,25.449154 10.324672,25.449154 L 6.9348854,25.449154 L 6.9348854,27.730571 C 6.9348854,30.011988 6.9348854,30.011988 4.6534684,30.011988 C 2.4263725,30.011988 2.3720513,30.059518 2.3720513,32.008228 L 2.3720513,34.004468 L 24.330689,34.004468 L 44.007911,34.004468 L 44.007911,29.726811 z"
         style="fill:#000000" />
    </g>
  </g>
</svg>
