<?xml version="1.0" encoding="UTF-8" standalone="no"?>
<!-- Created with Inkscape (http://www.inkscape.org/) -->
<svg
   xmlns:dc="http://purl.org/dc/elements/1.1/"
   xmlns:cc="http://creativecommons.org/ns#"
   xmlns:rdf="http://www.w3.org/1999/02/22-rdf-syntax-ns#"
   xmlns:svg="http://www.w3.org/2000/svg"
   xmlns="http://www.w3.org/2000/svg"
   xmlns:sodipodi="http://sodipodi.sourceforge.net/DTD/sodipodi-0.dtd"
   xmlns:inkscape="http://www.inkscape.org/namespaces/inkscape"
   id="svg2"
   sodipodi:version="0.32"
   inkscape:version="0.46"
   width="64"
   height="64"
   version="1.0"
   sodipodi:docname="loader.svg"
   inkscape:output_extension="org.inkscape.output.svg.inkscape"
   inkscape:export-filename="C:\Documents and Settings\dalesm\Desktop\SVG Creation\Loader.png"
   inkscape:export-xdpi="720"
   inkscape:export-ydpi="720">
  <metadata
     id="metadata7">
    <rdf:RDF>
      <cc:Work
         rdf:about="">
        <dc:format>image/svg+xml</dc:format>
        <dc:type
           rdf:resource="http://purl.org/dc/dcmitype/StillImage" />
      </cc:Work>
    </rdf:RDF>
  </metadata>
  <defs
     id="defs5">
    <inkscape:perspective
       sodipodi:type="inkscape:persp3d"
       inkscape:vp_x="0 : 526.18109 : 1"
       inkscape:vp_y="0 : 1000 : 0"
       inkscape:vp_z="744.09448 : 526.18109 : 1"
       inkscape:persp3d-origin="372.04724 : 350.78739 : 1"
       id="perspective9" />
  </defs>
  <sodipodi:namedview
     inkscape:window-height="1147"
     inkscape:window-width="1920"
     inkscape:pageshadow="2"
     inkscape:pageopacity="0.0"
     guidetolerance="10.0"
     gridtolerance="10.0"
     objecttolerance="10.0"
     borderopacity="1.0"
     bordercolor="#666666"
     pagecolor="#ffffff"
     id="base"
     showgrid="false"
     inkscape:zoom="6.0444444"
     inkscape:cx="-0.16544139"
     inkscape:cy="28"
     inkscape:window-x="-4"
     inkscape:window-y="-4"
     inkscape:current-layer="layer2" />
  <g
     inkscape:groupmode="layer"
     id="layer2"
     inkscape:label="circle" />
  <g
     inkscape:groupmode="layer"
     id="layer1"
     inkscape:label="symbol">
    <path
       id="path2380"
       d="M 27.788635,45.417799 C 25.252425,45.387994 22.568601,43.074787 22.500508,40.993035 C 22.496562,40.872396 20.203192,41.437907 19.062968,41.981642 C 16.402288,43.25043 13.742086,42.768726 9.878554,40.318546 C 6.6004782,38.239653 6.6052602,36.19193 10.933033,37.718026 C 13.997069,38.798493 14.671153,36.176651 15.50406,35.521487 C 17.318586,34.094181 18.268839,34.023009 19.277887,35.238837 C 20.382761,36.570129 21.095001,36.349673 21.095001,34.676397 C 21.095001,33.018138 22.532777,31.301754 23.921862,31.301754 C 24.429631,31.301754 25.704856,30.712768 26.755696,29.992896 C 30.472969,27.446398 31.911943,25.727696 32.312701,23.355643 C 32.89929,19.883638 34.888413,18.58195 39.607423,18.58195 C 44.01297,18.58195 45.076358,19.302414 45.670737,22.689928 C 46.899566,29.693404 46.558119,29.181787 50.003356,29.181787 L 53.107474,29.181787 L 54.992125,32.85903 C 56.950433,36.67999 56.949753,38.258835 54.989508,38.880992 C 54.371046,39.077281 51.487076,39.683924 51.275177,40.351568 C 50.654619,42.30676 48.466453,45.23297 46.047837,45.23297 C 44.34861,45.23297 41.388832,42.700583 41.288137,40.605562 C 41.277293,40.379931 38.87835,40.229537 37.059302,40.304937 C 34.871456,40.395621 32.70415,40.268946 32.701379,40.304937 C 32.524641,42.600312 30.425039,45.448781 27.788635,45.417799 z"
       style="fill:#000000"
       sodipodi:nodetypes="csssssssssssscccssssssz" />
  </g>
</svg>
