<?xml version="1.0" encoding="UTF-8" standalone="no"?>
<!-- Created with Inkscape (http://www.inkscape.org/) -->
<svg
   xmlns:dc="http://purl.org/dc/elements/1.1/"
   xmlns:cc="http://creativecommons.org/ns#"
   xmlns:rdf="http://www.w3.org/1999/02/22-rdf-syntax-ns#"
   xmlns:svg="http://www.w3.org/2000/svg"
   xmlns="http://www.w3.org/2000/svg"
   xmlns:sodipodi="http://sodipodi.sourceforge.net/DTD/sodipodi-0.dtd"
   xmlns:inkscape="http://www.inkscape.org/namespaces/inkscape"
   width="64px"
   height="64px"
   id="svg4035"
   sodipodi:version="0.32"
   inkscape:version="0.46"
   sodipodi:docname="rotary_aircraft.svg"
   inkscape:output_extension="org.inkscape.output.svg.inkscape">
  <defs
     id="defs4037">
    <inkscape:perspective
       sodipodi:type="inkscape:persp3d"
       inkscape:vp_x="0 : 32 : 1"
       inkscape:vp_y="0 : 1000 : 0"
       inkscape:vp_z="64 : 32 : 1"
       inkscape:persp3d-origin="32 : 21.333333 : 1"
       id="perspective4043" />
  </defs>
  <sodipodi:namedview
     id="base"
     pagecolor="#ffffff"
     bordercolor="#666666"
     borderopacity="1.0"
     inkscape:pageopacity="0.0"
     inkscape:pageshadow="2"
     inkscape:zoom="5.5"
     inkscape:cx="-13.727273"
     inkscape:cy="32"
     inkscape:current-layer="layer2"
     showgrid="true"
     inkscape:document-units="px"
     inkscape:grid-bbox="true"
     inkscape:window-width="1920"
     inkscape:window-height="1147"
     inkscape:window-x="-4"
     inkscape:window-y="-4" />
  <metadata
     id="metadata4040">
    <rdf:RDF>
      <cc:Work
         rdf:about="">
        <dc:format>image/svg+xml</dc:format>
        <dc:type
           rdf:resource="http://purl.org/dc/dcmitype/StillImage" />
      </cc:Work>
    </rdf:RDF>
  </metadata>
  <g
     inkscape:groupmode="layer"
     id="layer2"
     inkscape:label="circle"
     style="display:inline" />
  <g
     id="layer1"
     inkscape:label="Layer 1"
     inkscape:groupmode="layer"
     style="display:inline">
    <g
       id="g4029"
       transform="matrix(0.3411637,0,0,0.3411637,-174.85686,-70.712317)"
       style="fill:#000000">
      <path
         id="path3628"
         d="M 547.0442,340.48441 C 543.50533,337.70073 543.42285,332.45258 546.86389,329.01154 C 549.12709,326.74833 550.06254,326.55699 558.86389,326.55699 C 568.24036,326.55699 568.40934,326.51502 568.40934,324.18616 C 568.40934,322.03487 567.86266,321.75347 562.50592,321.14743 C 543.20747,318.96406 537.85498,295.86843 554.06542,284.7273 C 557.47581,282.3834 558.81289,282.09599 565.92063,282.17899 C 572.37722,282.25439 575.01581,282.78531 579.51713,284.91477 C 582.58899,286.36799 585.39641,287.55699 585.75583,287.55699 C 586.11526,287.55699 586.40934,286.00855 586.40934,284.11601 C 586.40934,282.22347 586.85934,280.39691 587.40934,280.05699 C 588.56765,279.34111 588.77389,272.88868 587.65934,272.23546 C 587.24684,271.99371 576.55934,273.30342 563.90934,275.14594 C 551.25934,276.98846 539.4734,278.50971 537.71836,278.52648 C 534.31224,278.55905 532.55282,277.01352 534.16299,275.40334 C 535.0931,274.47323 636.93806,259.60467 642.60032,259.57235 C 645.60677,259.55519 647.16926,261.19707 645.62043,262.7459 C 645.06237,263.30396 632.74908,265.43402 618.25756,267.47938 L 591.90934,271.1982 L 591.59619,274.92429 C 591.14979,280.23595 593.32855,284.83061 595.90934,284.02003 C 600.7652,282.4949 608.17648,281.56042 611.2119,282.09055 C 616.00307,282.92732 616.40732,285.294 612.32779,288.62355 C 610.45468,290.15231 609.24941,291.73039 609.64942,292.1304 C 610.32062,292.80159 651.09008,290.05298 656.13786,288.99622 C 658.27297,288.54922 658.29393,288.4452 656.63786,286.51429 C 650.80082,279.70855 652.83957,269.95337 660.89814,266.12933 C 671.76746,260.9715 683.04128,272.46042 677.74579,283.29842 C 676.37994,286.09384 674.53725,287.72579 670.55496,289.66687 C 667.61005,291.1023 664.84464,292.85266 664.40961,293.55656 C 663.97457,294.26046 651.43122,298.11932 636.53548,302.13181 C 621.63975,306.14431 608.24563,310.01895 606.77077,310.74212 C 602.64391,312.76568 600.10058,316.90385 599.99912,321.76008 L 599.90934,326.05699 L 612.53052,326.3359 C 626.61188,326.64709 628.00096,327.26561 629.04326,333.68855 C 629.48063,336.38372 629.07659,337.62398 627.04827,339.81258 L 624.50484,342.55699 L 587.09195,342.55699 C 550.75653,342.55699 549.60318,342.4973 547.0442,340.48441 z"
         style="fill:#000000;fill-opacity:1" />
      <path
         id="path3626"
         d="M 595.22889,323.80699 C 595.54377,321.58992 595.38644,321.55699 584.47889,321.55699 L 573.40934,321.55699 L 573.40934,324.09082 L 573.40934,326.62465 L 584.15934,326.34082 C 594.44687,326.0692 594.92309,325.96019 595.22889,323.80699 z"
         style="fill:#000000;fill-opacity:1" />
      <path
         id="path3624"
         d="M 572.99113,311.55699 L 584.40934,311.55699 L 584.40934,301.24505 C 584.40934,291.14556 584.35269,290.89204 581.65934,288.93976 C 577.10978,285.64199 572.55543,284.24219 566.06636,284.14716 C 558.00021,284.02903 553.47023,286.23988 549.50145,292.23164 C 545.98741,297.53688 545.38714,303.67958 547.90663,308.55175 C 549.18425,311.02239 550.10121,311.50109 554.15663,311.81462 C 556.77062,312.01671 559.50865,312.04142 560.24113,311.86952 C 560.97361,311.69763 566.71111,311.55699 572.99113,311.55699 z"
         style="fill:#000000;fill-opacity:1" />
      <path
         id="path3622"
         d="M 673.29861,285.99671 C 681.84773,278.8031 675.11108,264.88955 664.08087,266.95883 C 656.5601,268.36974 652.70012,278.47304 657.36318,284.54205 C 659.60171,287.4555 659.52554,287.50643 662.57497,281.05699 C 663.87523,278.30699 665.60738,276.05699 666.42421,276.05699 C 668.04221,276.05699 668.15415,277.70217 666.98552,284.30699 C 666.306,288.14746 666.42734,288.55699 668.24472,288.55699 C 669.35086,288.55699 671.62511,287.40486 673.29861,285.99671 z"
         style="fill:#000000;fill-opacity:1" />
    </g>
  </g>
</svg>
