<?xml version="1.0" encoding="UTF-8" standalone="no"?>
<!-- Created with Inkscape (http://www.inkscape.org/) -->
<svg
   xmlns:dc="http://purl.org/dc/elements/1.1/"
   xmlns:cc="http://creativecommons.org/ns#"
   xmlns:rdf="http://www.w3.org/1999/02/22-rdf-syntax-ns#"
   xmlns:svg="http://www.w3.org/2000/svg"
   xmlns="http://www.w3.org/2000/svg"
   xmlns:sodipodi="http://sodipodi.sourceforge.net/DTD/sodipodi-0.dtd"
   xmlns:inkscape="http://www.inkscape.org/namespaces/inkscape"
   width="64px"
   height="64px"
   id="svg2397"
   sodipodi:version="0.32"
   inkscape:version="0.46"
   sodipodi:docname="snorkel.svg"
   inkscape:output_extension="org.inkscape.output.svg.inkscape">
  <defs
     id="defs2399">
    <filter
       inkscape:collect="always"
       id="filter3685">
      <feGaussianBlur
         inkscape:collect="always"
         stdDeviation="2.3822825"
         id="feGaussianBlur3687" />
    </filter>
    <inkscape:perspective
       sodipodi:type="inkscape:persp3d"
       inkscape:vp_x="0 : 32 : 1"
       inkscape:vp_y="0 : 1000 : 0"
       inkscape:vp_z="64 : 32 : 1"
       inkscape:persp3d-origin="32 : 21.333333 : 1"
       id="perspective2405" />
  </defs>
  <sodipodi:namedview
     id="base"
     pagecolor="#ffffff"
     bordercolor="#666666"
     borderopacity="1.0"
     inkscape:pageopacity="0.0"
     inkscape:pageshadow="2"
     inkscape:zoom="7.7781746"
     inkscape:cx="31.66279"
     inkscape:cy="31.689538"
     inkscape:current-layer="layer2"
     showgrid="true"
     inkscape:document-units="px"
     inkscape:grid-bbox="true"
     inkscape:window-width="1920"
     inkscape:window-height="1147"
     inkscape:window-x="-4"
     inkscape:window-y="-4" />
  <metadata
     id="metadata2402">
    <rdf:RDF>
      <cc:Work
         rdf:about="">
        <dc:format>image/svg+xml</dc:format>
        <dc:type
           rdf:resource="http://purl.org/dc/dcmitype/StillImage" />
      </cc:Work>
    </rdf:RDF>
  </metadata>
  <g
     inkscape:groupmode="layer"
     id="layer2"
     inkscape:label="circle'" />
  <g
     id="layer1"
     inkscape:label="Layer 1"
     inkscape:groupmode="layer">
    <path
       id="path2886-1"
       style="fill:#000000;fill-opacity:1;stroke:none;filter:url(#filter3685)"
       d="M 254.77273,219.93758 C 254.77273,240.9244 236.64026,257.93758 214.27273,257.93758 C 191.9052,257.93758 173.77273,240.9244 173.77273,219.93758 C 173.77273,198.95076 191.9052,181.93758 214.27273,181.93758 C 236.64026,181.93758 254.77273,198.95076 254.77273,219.93758 z M -59.727274,223.93758 C -59.727274,244.9244 -77.859744,261.93758 -100.22727,261.93758 C -122.5948,261.93758 -140.72728,244.9244 -140.72728,223.93758 C -140.72728,202.95076 -122.5948,185.93758 -100.22727,185.93758 C -77.859744,185.93758 -59.727274,202.95076 -59.727274,223.93758 z M -208.36345,166.36523 C -208.69466,165.50212 -208.68151,159.0883 -208.33425,152.11229 C -207.98697,145.13629 -207.41258,131.18038 -207.05782,121.09916 L -206.41281,102.76967 L -203.82516,101.78585 C -199.57147,100.1686 7.2992658,-14.376904 7.2992658,-15.114944 C 7.2992658,-15.489024 -28.700734,-43.853124 -72.700734,-78.146274 C -116.70073,-112.43943 -152.70074,-140.77121 -152.70074,-141.10579 C -152.70074,-141.68287 -132.73598,-162.57424 -121.4555,-173.80119 C -118.56538,-176.6776 -115.52573,-179.02988 -114.70073,-179.02848 C -113.13544,-179.02548 85.745136,-27.032174 89.597586,-22.894354 C 90.808506,-21.593734 93.486766,-19.489784 95.549266,-18.218914 C 97.611766,-16.948044 99.299266,-15.483794 99.299266,-14.965044 C 99.299266,-14.446284 100.42427,-13.594124 101.79927,-13.071354 C 104.83018,-11.919004 105.25862,-7.2216342 102.54927,-4.8484842 C 101.58677,-4.0054242 53.909746,24.158046 -3.3996642,57.737006 C -100.063,114.37437 -139.65813,138.32562 -139.68846,140.17865 C -139.69546,140.59115 -132.41724,140.92865 -123.51518,140.92865 C -108.92509,140.92865 -107.12613,140.73901 -105.26518,139.00476 C -104.12973,137.94661 -100.50073,135.5313 -97.200734,133.6374 C -93.900734,131.7435 -78.850424,122.93425 -63.755604,114.0613 L -36.310484,97.928646 L 45.007356,97.928646 L 126.32519,97.928646 L 126.06223,132.67865 L 125.79927,167.42865 L -40.980994,167.68158 C -191.72961,167.9102 -207.81914,167.78367 -208.36345,166.36523 z M -207.70074,213.33435 C -212.00362,211.47056 -216.13745,207.66394 -219.40196,202.55933 C -221.70654,198.95574 -226.70074,182.01441 -226.70074,177.80043 C -226.70074,175.99975 -225.02934,175.92865 -182.70074,175.92865 C -158.50074,175.92865 -138.70074,176.21762 -138.70074,176.57081 C -138.70074,176.924 -141.59664,182.67182 -145.13607,189.34374 C -150.78166,199.98581 -152.34635,202.09968 -157.88607,206.56882 C -168.21306,214.90006 -168.33324,214.93393 -187.40108,214.88951 C -200.13804,214.85981 -205.04715,214.48374 -207.70074,213.33435 L -207.70074,213.33435 z M -45.960114,209.67865 C -50.962764,200.74 -54.309394,190.20466 -55.339244,180.15277 L -55.991384,173.7875 L -19.596064,174.10808 C 0.4213658,174.28439 45.261766,174.31615 80.049266,174.17868 L 143.29927,173.92865 L 143.29927,106.38062 L 143.29927,38.832596 L 162.04927,39.371896 C 172.36177,39.668516 191.14927,40.161426 203.79927,40.467246 C 230.3889,41.110076 244.23096,42.324836 248.16852,44.361026 C 253.2484,46.987946 257.99982,53.538246 264.62956,67.054226 C 276.94335,92.158226 282.33457,108.18016 284.27196,125.42865 C 285.51947,136.53533 285.58907,197.14716 284.36406,205.61536 C 282.52347,218.33852 278.8674,220.9686 273.07898,213.73353 C 271.1847,211.36585 266.97184,204.96759 263.71705,199.51519 C 243.98732,166.46404 214.76778,157.01937 187.88074,175.00253 C 179.73908,180.448 175.33148,185.05174 169.15581,194.56074 C 166.24613,199.04091 162.22314,203.01439 154.22202,209.31074 L 143.27076,217.92865 L 50.963936,217.92865 L -41.342894,217.92865 L -45.960124,209.67865 L -45.960114,209.67865 z"
       transform="matrix(8.7824151e-2,0,0,8.7824151e-2,29.429148,28.359289)" />
  </g>
</svg>
