<?xml version="1.0" encoding="UTF-8" standalone="no"?>
<!-- Created with Inkscape (http://www.inkscape.org/) -->
<svg
   xmlns:dc="http://purl.org/dc/elements/1.1/"
   xmlns:cc="http://creativecommons.org/ns#"
   xmlns:rdf="http://www.w3.org/1999/02/22-rdf-syntax-ns#"
   xmlns:svg="http://www.w3.org/2000/svg"
   xmlns="http://www.w3.org/2000/svg"
   xmlns:sodipodi="http://sodipodi.sourceforge.net/DTD/sodipodi-0.dtd"
   xmlns:inkscape="http://www.inkscape.org/namespaces/inkscape"
   width="64px"
   height="64px"
   id="svg2386"
   sodipodi:version="0.32"
   inkscape:version="0.46"
   sodipodi:docname="tender.svg"
   inkscape:output_extension="org.inkscape.output.svg.inkscape">
  <defs
     id="defs2388">
    <inkscape:perspective
       sodipodi:type="inkscape:persp3d"
       inkscape:vp_x="0 : 32 : 1"
       inkscape:vp_y="0 : 1000 : 0"
       inkscape:vp_z="64 : 32 : 1"
       inkscape:persp3d-origin="32 : 21.333333 : 1"
       id="perspective2394" />
  </defs>
  <sodipodi:namedview
     id="base"
     pagecolor="#ffffff"
     bordercolor="#666666"
     borderopacity="1.0"
     inkscape:pageopacity="0.0"
     inkscape:pageshadow="2"
     inkscape:zoom="5.5"
     inkscape:cx="74.323305"
     inkscape:cy="37.875823"
     inkscape:current-layer="layer2"
     showgrid="true"
     inkscape:document-units="px"
     inkscape:grid-bbox="true"
     inkscape:window-width="1920"
     inkscape:window-height="1147"
     inkscape:window-x="-4"
     inkscape:window-y="-4" />
  <metadata
     id="metadata2391">
    <rdf:RDF>
      <cc:Work
         rdf:about="">
        <dc:format>image/svg+xml</dc:format>
        <dc:type
           rdf:resource="http://purl.org/dc/dcmitype/StillImage" />
      </cc:Work>
    </rdf:RDF>
  </metadata>
  <g
     inkscape:groupmode="layer"
     id="layer2"
     inkscape:label="circle" />
  <g
     id="layer1"
     inkscape:label="Layer 1"
     inkscape:groupmode="layer">
    <path
       style="fill:#000000"
       d="M 18.642155,46.082771 C 16.664675,45.580192 15.571715,43.915696 16.12513,42.249526 C 16.413422,41.381559 17.53527,40.456385 18.618698,40.193107 C 19.268755,40.035141 20.338257,40.065615 20.959925,40.259816 C 21.6941,40.489165 22.184505,40.794061 22.647505,41.309028 C 24.091076,42.914626 23.346025,45.175288 21.114844,45.959484 C 20.450857,46.192858 19.300908,46.250193 18.642155,46.082771 z M 45.06041,45.75341 C 42.44238,44.861036 41.934056,41.95657 44.145729,40.527097 C 44.811568,40.096745 45.3634,39.92294 46.234178,39.869316 C 47.829567,39.771067 49.298367,40.539669 49.891923,41.783362 C 50.670546,43.414816 49.672202,45.217436 47.659559,45.814136 C 46.95544,46.02289 45.769736,45.995187 45.06041,45.75341 z M 23.441681,41.709355 C 23.02963,40.408255 21.46216,39.48131 19.651053,39.467712 C 18.75191,39.460963 18.145172,39.59238 17.390065,39.957442 C 16.848769,40.219132 16.044772,40.928061 15.949753,41.227446 C 15.912457,41.344957 15.838205,41.376952 15.667379,41.349121 C 15.539903,41.328354 14.719409,41.250562 13.844061,41.17625 C 11.852795,41.007203 11.449967,40.936391 10.892487,40.657404 C 10.192501,40.307102 10.078863,40.162503 10.011865,39.536879 C 9.931803,38.78927 10.081446,38.022313 10.44363,37.324 C 10.619173,36.985546 10.746996,36.613994 10.746996,36.442198 L 10.746996,36.145302 L 21.801791,36.145302 L 32.856587,36.145302 L 32.855823,35.43556 C 32.855403,35.045199 32.778319,33.545061 32.684528,32.101918 C 32.590736,30.658772 32.513651,29.31018 32.513231,29.10505 L 32.512468,28.732084 L 33.136183,28.782615 C 33.479226,28.810408 34.514807,28.892365 35.437472,28.964742 C 37.426517,29.120768 38.696582,29.292363 39.214263,29.475014 C 39.656056,29.630887 39.613543,29.605698 42.27682,31.28969 C 44.649618,32.790008 44.887981,32.919956 45.564741,33.08214 C 45.838298,33.147696 46.166999,33.242755 46.295188,33.293383 C 46.423376,33.344009 46.98472,33.44785 47.542616,33.52414 C 50.074287,33.870337 51.992596,34.495013 52.715282,35.208567 C 53.422882,35.907223 54.077841,37.942631 54.003358,39.2115 C 53.959651,39.956005 53.861022,40.178991 53.474405,40.407374 C 53.332233,40.491355 53.067178,40.694437 52.885396,40.85867 C 52.56409,41.148946 52.525974,41.15984 51.51794,41.249431 L 50.481001,41.341587 L 50.250537,41.044736 C 49.395209,39.943029 48.081485,39.382635 46.363223,39.386532 C 44.899828,39.389846 43.825237,39.762556 42.935009,40.575566 C 42.485516,40.986069 42.064466,41.681278 42.062587,42.016053 C 42.061792,42.157338 41.53795,42.167104 32.831051,42.188112 L 23.600354,42.210386 L 23.441681,41.709355 z M 11.551866,35.394084 C 11.003343,35.367116 10.931769,35.343435 10.886312,35.173887 C 10.858296,35.069397 10.834848,31.122253 10.8342,26.40246 L 10.833025,17.821012 L 20.888251,17.821012 L 30.943475,17.821012 L 30.995481,18.616785 C 31.024086,19.054463 31.070014,20.39975 31.097544,21.606312 C 31.147599,23.79991 31.205688,24.948631 31.60838,31.708111 C 31.726552,33.691723 31.800888,35.337037 31.773569,35.364367 C 31.720757,35.417194 12.593688,35.445304 11.551866,35.394084 z M 22.791132,29.219928 L 22.791132,25.649701 L 25.113928,25.649701 L 27.436724,25.649701 L 27.436724,23.714037 L 27.436724,21.778371 L 20.855468,21.778371 L 14.274208,21.778371 L 14.274208,23.714037 L 14.274208,25.649701 L 16.424946,25.649701 L 18.575685,25.649701 L 18.575685,29.219928 L 18.575685,32.790153 L 20.683406,32.790153 L 22.791132,32.790153 L 22.791132,29.219928 z"
       id="path2384" />
  </g>
</svg>
