<?xml version="1.0" encoding="UTF-8" standalone="no"?>
<!-- Created with Inkscape (http://www.inkscape.org/) -->
<svg
   xmlns:dc="http://purl.org/dc/elements/1.1/"
   xmlns:cc="http://creativecommons.org/ns#"
   xmlns:rdf="http://www.w3.org/1999/02/22-rdf-syntax-ns#"
   xmlns:svg="http://www.w3.org/2000/svg"
   xmlns="http://www.w3.org/2000/svg"
   xmlns:sodipodi="http://sodipodi.sourceforge.net/DTD/sodipodi-0.dtd"
   xmlns:inkscape="http://www.inkscape.org/namespaces/inkscape"
   width="64"
   height="64"
   id="svg2"
   sodipodi:version="0.32"
   inkscape:version="0.46"
   sodipodi:docname="vehiclecontrolpoint.svg"
   inkscape:output_extension="org.inkscape.output.svg.inkscape"
   version="1.0"
   inkscape:export-filename="C:\Documents and Settings\dalesm\Desktop\SVG Creation\VehicleControlPoint.png"
   inkscape:export-xdpi="720"
   inkscape:export-ydpi="720">
  <defs
     id="defs4">
    <inkscape:perspective
       sodipodi:type="inkscape:persp3d"
       inkscape:vp_x="0 : 526.18109 : 1"
       inkscape:vp_y="0 : 1000 : 0"
       inkscape:vp_z="744.09448 : 526.18109 : 1"
       inkscape:persp3d-origin="372.04724 : 350.78739 : 1"
       id="perspective10" />
    <inkscape:perspective
       id="perspective2390"
       inkscape:persp3d-origin="372.04724 : 350.78739 : 1"
       inkscape:vp_z="744.09448 : 526.18109 : 1"
       inkscape:vp_y="0 : 1000 : 0"
       inkscape:vp_x="0 : 526.18109 : 1"
       sodipodi:type="inkscape:persp3d" />
    <inkscape:perspective
       id="perspective2403"
       inkscape:persp3d-origin="372.04724 : 350.78739 : 1"
       inkscape:vp_z="744.09448 : 526.18109 : 1"
       inkscape:vp_y="0 : 1000 : 0"
       inkscape:vp_x="0 : 526.18109 : 1"
       sodipodi:type="inkscape:persp3d" />
  </defs>
  <sodipodi:namedview
     id="base"
     pagecolor="#ffffff"
     bordercolor="#666666"
     borderopacity="1.0"
     gridtolerance="10000"
     guidetolerance="10"
     objecttolerance="10"
     inkscape:pageopacity="0.0"
     inkscape:pageshadow="2"
     inkscape:zoom="7.3283774"
     inkscape:cx="13.370469"
     inkscape:cy="23.690547"
     inkscape:document-units="px"
     inkscape:current-layer="layer2"
     showgrid="false"
     inkscape:window-width="1920"
     inkscape:window-height="1147"
     inkscape:window-x="-4"
     inkscape:window-y="-4" />
  <metadata
     id="metadata7">
    <rdf:RDF>
      <cc:Work
         rdf:about="">
        <dc:format>image/svg+xml</dc:format>
        <dc:type
           rdf:resource="http://purl.org/dc/dcmitype/StillImage" />
      </cc:Work>
    </rdf:RDF>
  </metadata>
  <g
     inkscape:groupmode="layer"
     id="layer2"
     inkscape:label="circle'" />
  <g
     inkscape:label="Layer 1"
     inkscape:groupmode="layer"
     id="layer1">
    <path
       id="path2411"
       d="M 27.319163,55.004001 C 15.210928,52.477793 6.8150079,40.306172 8.9235565,28.335754 C 11.195167,15.439634 23.213316,6.7168012 35.68336,8.9133597 C 53.274751,12.012017 61.222964,31.87773 50.629636,46.269986 C 45.697182,52.971286 35.639161,56.739851 27.319163,55.004001 z M 40.984843,51.373986 C 45.268538,49.37782 49.380032,45.269976 51.393434,40.974638 C 52.754873,38.070167 52.969585,36.84822 52.969585,32.004455 C 52.969585,27.160698 52.754873,25.938743 51.393434,23.034271 C 49.382796,18.744842 45.274272,14.636318 40.984843,12.62568 C 38.080371,11.264235 36.858417,11.049529 32.014659,11.049529 C 27.170895,11.049529 25.948947,11.264235 23.044469,12.62568 C 11.196776,18.179187 7.0985634,33.038359 14.381901,44.034194 C 16.641687,47.445855 19.94568,50.075385 24.235709,51.876502 C 28.94556,53.853873 36.12537,53.638459 40.984843,51.373986 z M 19.875222,47.289104 C 19.644904,46.916441 21.785746,44.312484 24.862742,41.222639 C 29.974741,36.089293 30.200892,35.756186 29.231911,34.787204 C 28.262929,33.818223 27.927043,34.047144 22.742791,39.20983 C 18.415665,43.518967 17.124115,44.502889 16.549326,43.928106 C 15.974543,43.353324 16.956687,42.063557 21.259075,37.743203 L 26.695048,32.284529 L 21.255258,26.844738 C 16.934441,22.523923 15.965643,21.254778 16.545515,20.674906 C 17.125387,20.095027 18.400176,21.064805 22.742791,25.389366 C 27.927043,30.552051 28.262929,30.780972 29.231911,29.81199 C 30.200892,28.843003 29.97197,28.507117 24.809285,23.322873 C 20.500141,18.995746 19.516227,17.704194 20.091008,17.129406 C 20.665791,16.554623 21.955557,17.536767 26.275905,21.839155 L 31.734578,27.275129 L 37.174376,21.835337 C 41.493891,17.515823 42.764446,16.545825 43.343886,17.125266 C 43.923327,17.704714 43.014238,18.919289 38.929554,23.022995 C 36.100323,25.865396 33.785494,28.464643 33.785494,28.799111 C 33.785494,29.133571 34.108385,29.730117 34.503023,30.124755 C 35.066207,30.687938 36.397488,29.670239 40.692015,25.39357 C 45.021168,21.082414 46.315029,20.09641 46.889379,20.670768 C 47.463738,21.245117 46.54134,22.475621 42.47123,26.564671 C 39.642001,29.407071 37.32717,31.987789 37.32717,32.299593 C 37.32717,32.611406 39.642001,35.192125 42.47123,38.034524 C 46.54134,42.123574 47.463738,43.354077 46.889379,43.928427 C 46.315029,44.502786 45.022053,43.517658 40.696235,39.20983 C 35.511991,34.047144 35.176105,33.818223 34.207124,34.787204 C 33.238142,35.756186 33.467063,36.092072 38.629749,41.276323 C 42.938886,45.603449 43.922808,46.895001 43.348025,47.469782 C 42.773244,48.044572 41.482607,47.061557 37.158953,42.755887 L 31.696112,37.315759 L 26.407609,42.628885 C 23.498926,45.551104 20.930019,47.94201 20.698911,47.94201 C 20.467817,47.94201 20.097151,47.6482 19.875222,47.289104 z M 32.815256,31.320447 C 32.070531,30.497533 31.644528,30.396243 31.039638,30.898256 C 30.057486,31.713367 30.022267,32.727359 30.944096,33.64918 C 31.484273,34.189364 31.89021,34.126972 32.719713,33.376287 C 33.723613,32.467767 33.729961,32.331185 32.815256,31.320447 z"
       style="fill:#000000;fill-opacity:1" />
  </g>
</svg>
