<svg xmlns="http://www.w3.org/2000/svg" width="24" height="24" viewBox="0 0 24 24"><path d="M2 6a1 1 0 0 0-1 1v4a1 1 0 0 0 .293.707l.723.723C.92 12.89 0 13.8 0 15c0 1.57 1.43 3 3 3h12c.94 0 1.705-.575 2.268-1.322a1 1 0 0 0 .537.302l5 1c.97.194 1.602-.988.902-1.687L23 15.586v-2.172l.707-.707c.7-.7.068-1.881-.902-1.687L19 11.78V8a1 1 0 0 0-1-1h-1.586l-.707-.707A1 1 0 0 0 15 6h-1a1 1 0 0 0-1 1h-3a1 1 0 0 0-1 1v2H8V9a1 1 0 0 0-.293-.707L7 7.586V7a1 1 0 0 0-1-1z" fill="#1b310d"/><path d="M2 7v4l1 1h12a3 3 0 0 1 2.826 2H18v2l5 1-1-1v-3l1-1-5 1V8h-2l-1-1h-1v1h-4v3H7V9L6 8V7H2zm1 6a2 2 0 0 0-2 2 2 2 0 0 0 2 2h12a2 2 0 0 0 2-2 2 2 0 0 0-2-2H3z" fill="#71c837"/></svg>