<?xml version="1.0" encoding="UTF-8" standalone="no"?>
<svg xmlns:rdf="http://www.w3.org/1999/02/22-rdf-syntax-ns#" xmlns="http://www.w3.org/2000/svg" height="1.5cm" width="12cm" version="1.1" y="0" x="0" xmlns:cc="http://creativecommons.org/ns#" xmlns:dc="http://purl.org/dc/elements/1.1/">
 <g transform="matrix(1.2402 0 0 1 -.063273 17.717)">
  <g style="mix-blend-mode:normal" stroke-width=".99997" mix-blend-mode="normal" transform="matrix(1.0042 0 0 1.0345 .50188 12.67)" text-anchor="none" stroke="#000" stroke-miterlimit="10" font-size="none" font-weight="none" fill="#fff">
   <rect height="51.378" width="341.42" stroke="#000" stroke-miterlimit="10" y="-29.373" x="-.44898" stroke-width=".99997" fill="#fff"/>
  </g>
  <line style="mix-blend-mode:normal" x1="175.01" font-size="12" y1="1.6797" stroke="#000" stroke-miterlimit="10" x2="175.01" y2="24.357"/>
  <text style="mix-blend-mode:normal" font-family="monospace" font-size="7px" y="25.356859" x="179.01216" font-weight="bold" fill="#000000">0</text>
  <line style="mix-blend-mode:normal" x1="203.36" font-size="12" y1="1.6797" stroke="#000" stroke-miterlimit="10" x2="203.36" y2="24.357"/>
  <text style="mix-blend-mode:normal" font-family="monospace" font-size="7px" y="25.356859" x="207.35861" font-weight="bold" fill="#000000">1</text>
  <line style="mix-blend-mode:normal" x1="231.71" font-size="12" y1="1.6797" stroke="#000" stroke-miterlimit="10" x2="231.71" y2="24.357"/>
  <text style="mix-blend-mode:normal" font-family="monospace" font-size="7px" y="25.356859" x="235.70506" font-weight="bold" fill="#000000">2</text>
  <line style="mix-blend-mode:normal" x1="260.05" font-size="12" y1="1.6797" stroke="#000" stroke-miterlimit="10" x2="260.05" y2="24.357"/>
  <text style="mix-blend-mode:normal" font-family="monospace" font-size="7px" y="25.356859" x="264.05151" font-weight="bold" fill="#000000">3</text>
  <line style="mix-blend-mode:normal" x1="288.4" font-size="12" y1="1.6797" stroke="#000" stroke-miterlimit="10" x2="288.4" y2="24.357"/>
  <text style="mix-blend-mode:normal;text-anchor:end" font-family="monospace" font-size="7px" y="25.356859" x="305.3627" font-weight="bold" fill="#000000">4cm</text>
  <line stroke-width="1.0003" style="mix-blend-mode:normal" x1="288.85" font-size="12" y1="7.57" stroke="#000" stroke-miterlimit="10" x2="174.56" y2="7.57"/>
  <text style="mix-blend-mode:normal;text-anchor:end" font-family="monospace" font-size="7px" y="-2.4210854" x="305.52542" font-weight="bold" fill="#000000">{{ km }}km</text>
  <g style="mix-blend-mode:normal" mix-blend-mode="normal" transform="translate(175.01 7.6797)" stroke="#000" stroke-miterlimit="10" font-size="12">
   <line x1="14.173" x2="14.173" y2="11.339"/>
   <line x1="42.52" x2="42.52" y2="11.339"/>
   <line x1="70.866" x2="70.866" y2="11.339"/>
   <line x1="99.213" x2="99.213" y2="11.339"/>
  </g>
  <text style="word-spacing:0px;letter-spacing:0px" xml:space="preserve" transform="scale(.89796 1.1136)" font-size="35.918px" y="-80.550034" x="105.1611" font-family="sans-serif" line-height="125%" fill="#000000"><tspan x="105.1611" y="-80.550034"/></text>
  <g transform="matrix(.069370 0 0 .086031 297.55 -17.011)" stroke="#000">
   <g transform="matrix(.44310 0 0 .44310 253.34 54.222)" stroke="#000">
    <path d="m373.75 91.496c-0.95-1.132-74.87 153.23-164.19 343.02-160.8 341.68-162.27 345.16-156.49 350.27 3.203 2.83 6.954 4.79 8.319 4.34 1.365-0.46 71.171-73.88 155.14-163.1 83.97-89.22 153.66-162.83 154.87-163.56 1.2-0.72 71.42 72.34 156.04 162.29s155.21 163.82 156.95 164.19 5.57-1.19 8.5-3.44c5.04-3.86-3.75-23.46-156.04-348-88.77-189.18-162.15-344.88-163.1-346.01zm-2.72 42.694c1.4-1.53 2.45 63.91 2.45 148.36v151.07l-142.3 151.34c-124.61 132.46-143.8 152.86-145.1 153.51 0.143-0.35 1.009-1.57 1.361-2.26 0.81-1.59 64.409-137.07 141.3-301.05 76.89-163.99 140.93-299.45 142.29-300.97zm-99.77 642v244.81h32.11v-204.82l108.55 204.82h44.6v-244.81h-32.11v204.8l-108.56-204.8h-44.59z" stroke="#000"/>
   </g>
  </g>
  <g transform="translate(0 -.40190)" font-family="sans-serif" fill="#000000">
   <text style="word-spacing:0px;letter-spacing:0px" transform="scale(.89796 1.1136)" line-height="125%" xml:space="preserve" font-size="13.791px" y="-0.54994416" x="2.8649783"><tspan y="-0.54994416" x="2.8649783">{{ title }}</tspan></text>
   <text style="word-spacing:0px;letter-spacing:0px" transform="scale(.89796 1.1136)" line-height="125%" xml:space="preserve" font-size="11.225px" y="12.774043" x="3.1857841"><tspan y="12.774043" x="3.1857841">{{ subtitle }}</tspan></text>
   <text style="word-spacing:0px;letter-spacing:0px" transform="scale(.89796 1.1136)" line-height="125%" xml:space="preserve" font-size="8.9796px" y="26.193958" x="3.4663973"><tspan y="26.193958" x="3.4663973">{{ date }}</tspan></text>
  </g>
  <text style="mix-blend-mode:normal;text-anchor:end" font-family="monospace" font-size="7px" y="-2.4210854" x="232.71523" font-weight="bold" fill="#000000">{{ scale }}</text>
 </g>
</svg>
