<svg xmlns="http://www.w3.org/2000/svg" width="24" height="24" viewBox="0 0 24 24"><path d="M10 7.002a.999.999 0 0 0-.725.31L7.088 9.62l-2.73.393a.999.999 0 0 0-.565.281l-1.5 1.5a.999.999 0 0 0-.291.707V14a.999.999 0 0 0 .998.998h1.05a.999.999 0 0 0 .163-.014c.267 1.08 1.16 2.014 2.287 2.014 1.126 0 2.02-.932 2.287-2.012a.999.999 0 0 0 .158.012H15.05a.999.999 0 0 0 .163-.014c.267 1.08 1.16 2.014 2.287 2.014 1.126 0 2.02-.932 2.287-2.012a.999.999 0 0 0 .158.012H21a.999.999 0 0 0 .998-.998v-3a.999.999 0 0 0-.998-.998h-1.465L17.83 7.445a.999.999 0 0 0-.83-.443h-7zm.916 2.996h1.086v.004h-1.09l.004-.004zm4.082 0H16l.004.004h-1.006v-.004z" fill="#480000"/><path d="M10 8l-2.426 2.559L4.5 11 3 12.5V14h1.05a2.5 2.5 0 0 1 2.45-2 2.5 2.5 0 0 1 2.445 2H15.05a2.5 2.5 0 0 1 2.45-2 2.5 2.5 0 0 1 2.445 2H21v-3h-2l-2-3h-7zm.5 1H13v2H8.5l2-2zM14 9h2.5l1.5 2h-4V9zm-7.5 4A1.5 1.5 0 0 0 5 14.5 1.5 1.5 0 0 0 6.5 16 1.5 1.5 0 0 0 8 14.5 1.5 1.5 0 0 0 6.5 13zm11 0a1.5 1.5 0 0 0-1.5 1.5 1.5 1.5 0 0 0 1.5 1.5 1.5 1.5 0 0 0 1.5-1.5 1.5 1.5 0 0 0-1.5-1.5z" fill="#ed2727"/></svg>