<svg xmlns="http://www.w3.org/2000/svg" xmlns:xlink="http://www.w3.org/1999/xlink" width="24" height="24" viewBox="0 0 24 24"><defs><linearGradient id="b"><stop offset="0" stop-color="#bbb"/><stop offset="1" stop-color="#fff"/></linearGradient><linearGradient id="a"><stop offset="0" stop-color="#c9c9c9"/><stop offset="1" stop-color="#c9c9c9" stop-opacity="0"/></linearGradient><linearGradient y2="430.108" x2="-774.989" y1="619.613" x1="-776.403" gradientTransform="matrix(.4413 0 0 .46075 417.875 619.104)" gradientUnits="userSpaceOnUse" id="d" xlink:href="#a"/><linearGradient y2="295.758" x2="-490.025" y1="350.912" x1="-1027.219" gradientTransform="matrix(.4413 0 0 .46075 417.875 619.104)" gradientUnits="userSpaceOnUse" id="c" xlink:href="#b"/></defs><path d="M9 7.002a.998.998 0 0 0-.725.312L6.09 9.621l-2.733.39a.998.998 0 0 0-.562.284l-1.5 1.5a.998.998 0 0 0-.293.705V14c0 .551.447.998.998.998h1.05a.995.995 0 0 0 .155-.014c.254 1.109 1.116 2.014 2.295 2.014 1.18 0 2.041-.905 2.295-2.014.05.009.1.013.15.014H14.05a.995.995 0 0 0 .155-.014c.254 1.109 1.116 2.014 2.295 2.014 1.18 0 2.041-.905 2.295-2.014.05.009.1.013.15.014H21a.998.998 0 0 0 .998-.998v-3a.998.998 0 0 0-.998-.998h-7.002V8A.998.998 0 0 0 13 7.002z" fill="#000"/><path d="M9 8l-2.426 2.559L3.5 11 2 12.5V14h1.05a2.5 2.5 0 0 1 2.45-2 2.5 2.5 0 0 1 2.445 2H14.05a2.5 2.5 0 0 1 2.45-2 2.5 2.5 0 0 1 2.445 2H21v-3h-8V8H9zm.5 1H12v2H7.5l2-2zm-4 4a1.5 1.5 0 1 0 0 3 1.5 1.5 0 0 0 0-3zm11 0a1.5 1.5 0 1 0 0 3 1.5 1.5 0 0 0 0-3z" fill="#f00"/></svg>