<svg xmlns="http://www.w3.org/2000/svg" xmlns:xlink="http://www.w3.org/1999/xlink" width="24" height="24" viewBox="0 0 24 24"><defs><linearGradient id="b"><stop offset="0" stop-color="#bbb"/><stop offset="1" stop-color="#fff"/></linearGradient><linearGradient id="a"><stop offset="0" stop-color="#c9c9c9"/><stop offset="1" stop-color="#c9c9c9" stop-opacity="0"/></linearGradient><linearGradient y2="430.108" x2="-774.989" y1="619.613" x1="-776.403" gradientTransform="matrix(.4413 0 0 .46075 417.875 619.104)" gradientUnits="userSpaceOnUse" id="d" xlink:href="#a"/><linearGradient y2="295.758" x2="-490.025" y1="350.912" x1="-1027.219" gradientTransform="matrix(.4413 0 0 .46075 417.875 619.104)" gradientUnits="userSpaceOnUse" id="c" xlink:href="#b"/></defs><path d="M11 6a1 1 0 0 0-1 1v1a1 1 0 0 0 .121.475l-2.012 2.12-4.695.409a1 1 0 0 0-.621.289l-1.5 1.5A1 1 0 0 0 1 13.5V15a1 1 0 0 0 1 1h1.05a1 1 0 0 0 .153-.014C3.457 17.096 4.32 18 5.5 18c1.18 0 2.042-.904 2.297-2.012a1 1 0 0 0 .148.012H15.05a1 1 0 0 0 .153-.014C15.457 17.096 16.32 18 17.5 18c1.18 0 2.042-.904 2.297-2.012a1 1 0 0 0 .148.012h1.057a1 1 0 0 0 .707-.293l.998-1A1 1 0 0 0 23 14v-2a1 1 0 0 0-.105-.447l-1.5-3a1 1 0 0 0-.403-.424A1 1 0 0 0 21 8V7a1 1 0 0 0-1-1h-9z" fill="#000"/><path d="M11 7v1h1v1h-1l-2.426 2.559L3.5 12 2 13.5V15h1.05a2.5 2.5 0 0 1 2.45-2 2.5 2.5 0 0 1 2.445 2H15.05a2.5 2.5 0 0 1 2.45-2 2.5 2.5 0 0 1 2.445 2h1.057L22 14v-2l-1.5-3H19V8h1V7h-9zm2 1h5v1h-5V8zm-1.5 2H14v2H9.5l2-2zm3.5 0h4.813l1.062 2H15v-2zm-9.5 4a1.5 1.5 0 1 0 0 3 1.5 1.5 0 0 0 0-3zm12 0a1.5 1.5 0 1 0 0 3 1.5 1.5 0 0 0 0-3z" fill="#f60"/></svg>