<svg xmlns="http://www.w3.org/2000/svg" width="24" height="24" viewBox="0 0 24 24"><path d="M11.016 5a1 1 0 0 0 .18.02l5 1a1 1 0 0 0 .782.773l.758 3.588 4.405.629a1 1 0 0 0 .83.748l1 4A1 1 0 0 0 23 17H8a1 1 0 0 0-.486-.125s-.848-.472-1.846-1.105c-.998-.633-2.133-1.386-2.871-2.184C1.42 12.099.11 9.459.11 9.459a1 1 0 0 0 1.032-1.45l2.8.401.61-.305A1 1 0 0 0 5 8h2.586l2.707-2.707A1 1 0 0 0 11.016 5z" fill="#000"/><path d="M11 6l5 1 .902 4.271L22 12l1 4H8s-3.302-1.834-4.469-3.094C2.364 11.646 1 9 1 9l3.111.445L5 9h3l.03-.03 7.717 1.208-.438-2.355-5.032-1.1z" fill="#ff0"/></svg>