<svg xmlns="http://www.w3.org/2000/svg" width="24" height="24" viewBox="0 0 24 24"><path d="M12.984 5a1 1 0 0 0-.18.02l-5 1a1 1 0 0 0-.783.773l-.757 3.588-4.405.629a1 1 0 0 0-.83.748l-1 4A1 1 0 0 0 1 17h15a1 1 0 0 0 .486-.125s.848-.472 1.846-1.105c.998-.633 2.133-1.386 2.871-2.184 1.377-1.487 2.686-4.127 2.686-4.127a1 1 0 0 0-1.032-1.45l-2.8.401-.61-.305A1 1 0 0 0 19 8h-2.586l-2.707-2.707A1 1 0 0 0 12.984 5z" fill="#000"/><path d="M13 6L8 7l-.902 4.271L2 12l-1 4h15s3.302-1.834 4.469-3.094C21.635 11.646 23 9 23 9l-3.111.445L19 9h-3l-.03-.03-7.717 1.208.438-2.355 5.032-1.1z" fill="#f60"/></svg>