<svg xmlns="http://www.w3.org/2000/svg" width="24" height="24" viewBox="0 0 24 24"><path d="M3 6a1 1 0 0 0-.707.293l-1 1a1 1 0 0 0-.242.39l-1 3A1 1 0 0 0 0 11v4a1 1 0 0 0 1 1h1.053a1 1 0 0 0 .513-.145C3.02 16.505 3.657 17 4.5 17c.842 0 1.48-.494 1.934-1.143a1 1 0 0 0 .511.143h9.108a1 1 0 0 0 .513-.145C17.02 16.505 17.657 17 18.5 17c.842 0 1.48-.494 1.934-1.143a1 1 0 0 0 .511.143H23a1 1 0 0 0 1-1V7a1 1 0 0 0-1-1z" fill="#000"/><path d="M3 7L2 8l-1 3v4h1.053A2.5 2.5 0 1 1 7 14.5a2.5 2.5 0 0 1-.055.5h9.108A2.5 2.5 0 1 1 21 14.5c-.001.168-.02.336-.055.5H23V7zm0 1h4v3H2zm5 0h2v6H8zm3 0h11v3H11zm-6.5 5a1.5 1.5 0 1 0 0 3 1.5 1.5 0 0 0 0-3zm14 0a1.5 1.5 0 1 0 0 3 1.5 1.5 0 0 0 0-3z" fill="#f60"/></svg>