<svg xmlns="http://www.w3.org/2000/svg" width="24" height="24" viewBox="0 0 24 24"><path d="M13.5 0c-.832 0-1.403.563-1.65 1.201L8.816 9H5a1 1 0 0 0-.055.002c-1.744.097-2.713.228-3.478.586C.7 9.946.322 10.629.109 11.045a1 1 0 0 0 0 .91c.213.416.592 1.1 1.358 1.457.765.358 1.734.49 3.478.586A1 1 0 0 0 5 14h3.816l3.034 7.8c.247.638.819 1.2 1.65 1.2H15a1 1 0 0 0 .986-1.164L14.68 14h4.285l1.703 2.555a1 1 0 0 0 1.148.394l1.5-.5a1 1 0 0 0 .625-1.285s-.233-.655-.45-1.352a16.06 16.06 0 0 1-.278-.976c-.022-.09-.03-.145-.041-.207.013.002.014.002.111-.084.14-.124.27-.213.27-.213a1 1 0 0 0 0-1.664s-.13-.09-.27-.213c-.097-.086-.098-.086-.111-.084.011-.062.02-.117.04-.207.065-.27.17-.628.278-.976.218-.697.451-1.352.451-1.352a1 1 0 0 0-.625-1.285l-1.5-.5a1 1 0 0 0-1.148.394L18.965 9H14.68l1.306-7.836A1 1 0 0 0 15 0h-1.5z" fill="#7c3100"/><path d="M13.5 1c-.313 0-.595.243-.719.562L9.5 10H5c-3.405.189-3.555.628-4 1.5.445.872.595 1.311 4 1.5h4.5l3.281 8.438c.124.319.406.562.719.562H15l-1.5-9h6l2 3 1.5-.5s-.956-2.673-.844-3.094c.113-.42.844-.906.844-.906s-.731-.486-.844-.906C22.044 10.174 23 7.5 23 7.5L21.5 7l-2 3h-6L15 1h-1.5z" fill="#f60"/></svg>