<svg xmlns="http://www.w3.org/2000/svg" xmlns:xlink="http://www.w3.org/1999/xlink" width="24" height="24" viewBox="0 0 24 24"><defs><linearGradient id="b"><stop offset="0" stop-color="#bbb"/><stop offset="1" stop-color="#fff"/></linearGradient><linearGradient id="a"><stop offset="0" stop-color="#c9c9c9"/><stop offset="1" stop-color="#c9c9c9" stop-opacity="0"/></linearGradient><linearGradient y2="430.108" x2="-774.989" y1="619.613" x1="-776.403" gradientTransform="matrix(.4413 0 0 .46075 417.875 619.104)" gradientUnits="userSpaceOnUse" id="d" xlink:href="#a"/><linearGradient y2="295.758" x2="-490.025" y1="350.912" x1="-1027.219" gradientTransform="matrix(.4413 0 0 .46075 417.875 619.104)" gradientUnits="userSpaceOnUse" id="c" xlink:href="#b"/></defs><path d="M3 6a1 1 0 0 0-.707.293l-1 1a1 1 0 0 0-.264.465l-1 4A1 1 0 0 0 0 12v3a1 1 0 0 0 1 1h1.05a.996.996 0 0 0 .153-.014C2.457 17.096 3.32 18 4.5 18c1.18 0 2.043-.905 2.297-2.014.05.009.101.013.152.014h2.102a.996.996 0 0 0 .152-.014C9.457 17.096 10.32 18 11.5 18c1.369 0 2.5-1.131 2.5-2.5 0-.582-.286-1.073-.627-1.5H14a1 1 0 0 0 .83-.443l.17.17v1.335a1 1 0 0 0 1 1h1.041a.998.998 0 0 0 .195-.019C17.528 17.095 18.396 18 19.5 18c1.105 0 1.973-.906 2.264-1.959a1 1 0 0 0 .197.021H23a1 1 0 0 0 1-1v-3a1 1 0 0 0-1-1h-6.523l-1.77-1.769A1 1 0 0 0 14 9h-3a1 1 0 0 0-1 1v1H8V7a1 1 0 0 0-1-1z" fill="#562200"/><path d="M3 7L2 8l-1 4v3h1.05a2.5 2.5 0 0 1 4.9 0h2.1a2.5 2.5 0 0 1 2.45-2H14v-1H7V7H3zm0 1h2v4H2l1-4zm8 2v1h2.688L16 13.313v1.75h1.041A2.5 2.5 0 0 1 19.5 13a2.5 2.5 0 0 1 2.46 2.063H23v-3h-7V12l-2-2h-3zm-6.5 4a1.5 1.5 0 1 0 0 3 1.5 1.5 0 0 0 0-3zm7 0a1.5 1.5 0 1 0 0 3 1.5 1.5 0 0 0 0-3zm8 0a1.5 1.5 0 0 0-1.5 1.5 1.5 1.5 0 0 0 1.5 1.5 1.5 1.5 0 0 0 1.5-1.5 1.5 1.5 0 0 0-1.5-1.5z" fill="#f60"/></svg>