<svg xmlns="http://www.w3.org/2000/svg" width="64" height="64" version="1"><path d="M8.804 39.973c-.674-.675-.941-1.148-.941-1.668 0-.937-.283-1.262-.785-1.316-1.164-.124-1.936-.152-1.939-.136l.065-2.003h13.322c8.62 0 9.83-.002 9.927-.16l3.978-2.516 4.194.064 6.113.065.074 1.152.074 1.153-1.772.003c-1.743-.19-2.648.219-1.558 1.05.739.563 1.07.644 2.62.641.976-.002 1.91-.09 2.074-.194.222-.14.316-1.844.364-6.606l.065-6.417H55.79l1.175 2.911 1.175 2.911.02 3.032c.015 2.152.122 3.209.368 3.639.726 1.271.216 2.426-1.073 2.426-.559 0-.737.162-1.05.96-.432 1.099-1.622 1.949-2.729 1.949-1.039 0-2.275-.84-2.686-1.823l-.385.612-4.297-.004c-2.364-.002-4.42-.084-4.568-.182-.149-.098-.347-.424-.44-.724-.231-.737-.507-.686-.856.158-.461 1.113-1.322 1.767-2.482 1.885-1.359.138-2.42-.512-3.007-1.842l-.436-.99-1.853-.13c-.042 0-.075-1.154.114-1.573.03-.002 1.19-.138 2.716-.114 1.048-.881 1.127-1.694-1.072-1.64-.088.002-1.017-.014-1.18.051l-3.262 2.436c-.895.17-2.502.055-2.806.304-.466 1.821-.831 2.52-1.58 3.024-.454.304-1.163.553-1.577.553-1.521-.002-3.057-1.519-3.057-3.02 0-.388-.136-.618-.364-.618-.257 0-.364.26-.364.878 0 .695-.195 1.072-.942 1.819-.79.79-1.103.942-1.944.942-1.336 0-2.685-1.178-2.906-2.537-.198-1.216-.588-1.229-.783-.025-.225 1.385-1.562 2.562-2.91 2.562-.841 0-1.154-.152-1.945-.942z"/></svg>