<svg xmlns="http://www.w3.org/2000/svg" xmlns:xlink="http://www.w3.org/1999/xlink" width="24" height="24" viewBox="0 0 24 24"><defs><linearGradient id="b"><stop offset="0" stop-color="#bbb"/><stop offset="1" stop-color="#fff"/></linearGradient><linearGradient id="a"><stop offset="0" stop-color="#c9c9c9"/><stop offset="1" stop-color="#c9c9c9" stop-opacity="0"/></linearGradient><linearGradient y2="430.108" x2="-774.989" y1="619.613" x1="-776.403" gradientTransform="matrix(.4413 0 0 .46075 417.875 619.104)" gradientUnits="userSpaceOnUse" id="d" xlink:href="#a"/><linearGradient y2="295.758" x2="-490.025" y1="350.912" x1="-1027.219" gradientTransform="matrix(.4413 0 0 .46075 417.875 619.104)" gradientUnits="userSpaceOnUse" id="c" xlink:href="#b"/><linearGradient xlink:href="#b" id="e" gradientUnits="userSpaceOnUse" gradientTransform="matrix(.4413 0 0 .46075 417.875 619.104)" x1="-1027.219" y1="350.912" x2="-490.025" y2="295.758"/><linearGradient xlink:href="#a" id="f" gradientUnits="userSpaceOnUse" gradientTransform="matrix(.4413 0 0 .46075 417.875 619.104)" x1="-776.403" y1="619.613" x2="-774.989" y2="430.108"/></defs><path d="M3 5.998c-.266 0-.52.105-.709.293l-1 1c-.129.129-.22.29-.264.467l-1 4c-.02.079-.03.16-.029.242v3c0 .553.449 1.002 1.002 1.002h1.05a.997.997 0 0 0 .153-.012c.256 1.108 1.117 2.012 2.297 2.012 1.18 0 2.04-.904 2.297-2.012.05.008.101.012.152.012h9.102a.997.997 0 0 0 .152-.012c.256 1.108 1.117 2.012 2.297 2.012 1.18 0 2.04-.904 2.297-2.012.05.008.101.012.152.012H23c.553 0 1.002-.449 1.002-1.002v-3c0-.553-.449-1.002-1.002-1.002h-1.998V8c0-.553-.449-1.002-1.002-1.002h-7c-.553 0-1.002.449-1.002 1.002v2.998h-.996V7c0-.553-.449-1.002-1.002-1.002z" fill="#293415"/><path d="M3 7L2 8l-1 4v3h1.05a2.5 2.5 0 0 1 4.9 0h9.1a2.5 2.5 0 0 1 4.9 0H23v-3H10V7zm0 1h2v3l-1.5 1H2zm3 0h3v3H6zm7 0v3h7V8zm-8.5 6a1.5 1.5 0 1 0 0 3 1.5 1.5 0 0 0 0-3zm14 0a1.5 1.5 0 1 0 0 3 1.5 1.5 0 0 0 0-3z" fill="#ade638"/></svg>