<svg xmlns="http://www.w3.org/2000/svg" width="64" height="64"><defs><filter id="a"><feGaussianBlur stdDeviation="1.98"/></filter></defs><path d="M169.884 113.75c-22.435 0-40.615 16.6-40.615 37.092 0 20.492 18.18 37.12 40.615 37.12 22.435 0 40.615-16.628 40.615-37.12 0-20.491-18.18-37.093-40.615-37.093zm118.592-2.028c-22.435 0-40.615 16.601-40.615 37.093 0 20.492 18.18 37.12 40.615 37.12 22.435 0 40.615-16.628 40.615-37.12 0-20.492-18.18-37.093-40.615-37.093zM24.571-22.761L-.47-21.55C-6.858-17.699-2.089-9.791-1.204.399.543 20.516-.837 21.31-5.096 25.377c-2.867 2.29-6.356 4.09-10.24 5.582a488.27 488.27 0 0 0-7.656 0c-18.222 5.264-61.329-1.503-63.419 9.73l-2.2 16.556-5.711 16.43c-7.878 7.3-7.993 7.338-22.677 13.487-13.283 3.342-8.526 1.092-19.033 3.843-2.88 0-33.032-13.551-43.354-5.764-9.846 7.428 3.328 18.35 10.47 23.713 26.69 17.211 29.247 26.689 5.983 44.64-5.685 4.547-23.33 20.568-18.653 28.41 9.586 7.756 34.579-3.819 43.175-7.104 6.49-1.616 28.898-12.43 32.345-11.47-1.057-3.833-9.82-16.503-3.362-30.93 10.688-23.88 21.752-35.535 51.087-35.535 21.647 0 30.135 8.298 42.464 20.268 25.787 2.646 50.654-.831 58.821 2.378.91 2.915 7.362 23.268 2.808 27.052l-16.716-11.676-27.977-8.613c-1.947 8.836 8.528 15.334 12.792 23 1.823 7.64 1.117 11.142-4.051 18.79-5.482 3.324-21.736 18.933-14.802 19.555 51.794-1.926 61.68-6.147 71.138-11.963 8.517-4.265 5.962-15.638 7.656-23.415.463-3.33 2.743-21.24.51-31.868-8.513-31.363.003-24.39 2.972-27.524l10.568-72.11c-17.399-.949-45.356 1.664-58.328-.12-1.405-10.368-2.029-33.45-4.944-43.48h.002zM-57.075 107.98c-22.435 0-40.615 16.601-40.615 37.093 0 20.492 18.18 37.12 40.615 37.12 22.435 0 40.615-16.628 40.615-37.12 0-20.492-18.18-37.093-40.615-37.093zM102.326-91.962v.064c-16.181.566-16.907 2.674-17.609 7.975-.634 35.753 1.978 69.861 3.126 104.762-2.918 1.54-6.298 2.661-10.016 3.445 1.076 22.877-.83 45.804-.55 68.665 19.11 23.98 4.696 40.549 25.05 45.922 4.32-.072 9.197-.418 13.206-.702 4.42-22.833 27.093-40.226 54.422-40.226 30.498 0 55.22 21.651 55.22 48.361 0 3.071-.332 14.027-.957 16.94 2.308 1.476 3.875 4.798 8.135 1.371 2.513-.004 3.946.38 4.721.734-1.199-1.3-3.465-5.362-3.955-16.142 0-30.696 26.82-55.603 59.909-55.603 9.841 0 19.147 2.224 27.339 6.125l1.435-22.84c1.767-28.281 1.721-28.988-2.647-43.545-4.072-13.568-4.984-15.036-10.942-18.024-4.905-2.46-10.602-3.232-23.128-3.254-23.336-.04-25.829-2.264-32.762-28.455-1.034-3.904-1.243-13.217-1.212-19.746.024-4.957.096-9.801-1.245-9.985-3.425-.136-10.53.644-11.898.16-1.572-.557-4.466 5.212-1.404 24.308 1.098 6.846 1.431 15.52.733 19.3l-1.276 6.858-10.814-.989c-16.17-1.534-17.25-2.219-16.588-10.75.502-6.472 3.661-6.937-2.552-10.942-2.543-1.639-12.885-1.895-15.185-1.308-3.576.913.12 3.226.446 8.9.352 6.096.04 6.675-4.561 7.21-13.492 1.567-19.811-7.073-17.865-24.563 1.567-35.272 2.78-46.523-4.976-62.526-24.298-.5-43.996-1.06-60.356-1.467v-.032c-.17.005-.311.024-.478.032-.23-.006-.536-.024-.766-.032v-.001zm144.18 258.877c.814.881 1.089.497 0 0z" transform="translate(25.217 27.546) scale(.0928)" filter="url(#a)"/></svg>