<svg xmlns="http://www.w3.org/2000/svg" xmlns:xlink="http://www.w3.org/1999/xlink" width="24" height="24" viewBox="0 0 24 24"><defs><linearGradient id="b"><stop offset="0" stop-color="#bbb"/><stop offset="1" stop-color="#fff"/></linearGradient><linearGradient id="a"><stop offset="0" stop-color="#c9c9c9"/><stop offset="1" stop-color="#c9c9c9" stop-opacity="0"/></linearGradient><linearGradient y2="430.108" x2="-774.989" y1="619.613" x1="-776.403" gradientTransform="matrix(.4413 0 0 .46075 417.875 619.104)" gradientUnits="userSpaceOnUse" id="d" xlink:href="#a"/><linearGradient y2="295.758" x2="-490.025" y1="350.912" x1="-1027.219" gradientTransform="matrix(.4413 0 0 .46075 417.875 619.104)" gradientUnits="userSpaceOnUse" id="c" xlink:href="#b"/><linearGradient y2="295.758" x2="-490.025" y1="350.912" x1="-1027.219" gradientTransform="matrix(.4413 0 0 .46075 397.812 605.604)" gradientUnits="userSpaceOnUse" id="g" xlink:href="#b"/><linearGradient y2="430.108" x2="-774.989" y1="619.613" x1="-776.403" gradientTransform="matrix(.4413 0 0 .46075 397.812 605.604)" gradientUnits="userSpaceOnUse" id="h" xlink:href="#a"/><linearGradient xlink:href="#b" id="e" gradientUnits="userSpaceOnUse" gradientTransform="matrix(.4413 0 0 .46075 397.812 605.604)" x1="-1027.219" y1="350.912" x2="-490.025" y2="295.758"/><linearGradient xlink:href="#a" id="f" gradientUnits="userSpaceOnUse" gradientTransform="matrix(.4413 0 0 .46075 397.812 605.604)" x1="-776.403" y1="619.613" x2="-774.989" y2="430.108"/></defs><path d="M13 4.998A1.002 1.002 0 0 0 11.998 6v.998H11A1.002 1.002 0 0 0 9.998 8v1.998H2A1.002 1.002 0 0 0 .998 11v3A1.002 1.002 0 0 0 2 15.002h1.049a1.002 1.002 0 0 0 .154-.012c.256 1.108 1.117 2.012 2.297 2.012.606 0 1.127-.286 1.563-.652a1.002 1.002 0 0 0 .937.652h3.404a1.002 1.002 0 0 0 .399-.082l.63-.274a1.002 1.002 0 0 0 .403-.316l.568-.754c.422.794 1.1 1.426 2.053 1.426.894 0 1.547-.56 1.99-1.275.443.715 1.096 1.275 1.99 1.275 1.18 0 2.04-.903 2.297-2.01a1.002 1.002 0 0 0 .145.01H23A1.002 1.002 0 0 0 24.002 14V9A1.002 1.002 0 0 0 23 7.998h-2.998V6A1.002 1.002 0 0 0 19 4.998h-6zm-5.201 9.99a1.002 1.002 0 0 0 .01.002l-.014.006c0-.003.003-.005.004-.008z" fill="#7c3100"/><path d="M13 6v5h-1V8h-1v3H2v3h1.049A2.49 2.49 0 0 1 4 12.504V12h1.422c.026 0 .051-.008.078-.008.027 0 .052.007.078.008H13l.484.969a2.485 2.485 0 0 1 1.973-.98c.827 0 1.553.406 2.008 1.025a2.484 2.484 0 0 1 1.973-.983A2.5 2.5 0 0 1 21.878 14H23V9h-4V6h-6zm1 1h2v4h-2V7zm3 0h1v4h-1V7zM5.5 13a1.5 1.5 0 1 0 0 3 1.5 1.5 0 0 0 0-3zm9.957 0a1.5 1.5 0 1 0 0 3 1.5 1.5 0 0 0 0-3zm3.98 0a1.5 1.5 0 1 0 0 3 1.5 1.5 0 0 0 0-3zm-9.841 1v.445l-.965 1.282L8 16h3.404l.631-.273.965-1.282V14H9.596z" fill="#f60"/></svg>