<svg xmlns="http://www.w3.org/2000/svg" xmlns:xlink="http://www.w3.org/1999/xlink" width="24" height="24" viewBox="0 0 24 24"><defs><linearGradient id="b"><stop offset="0" stop-color="#bbb"/><stop offset="1" stop-color="#fff"/></linearGradient><linearGradient id="a"><stop offset="0" stop-color="#c9c9c9"/><stop offset="1" stop-color="#c9c9c9" stop-opacity="0"/></linearGradient><linearGradient y2="430.108" x2="-774.989" y1="619.613" x1="-776.403" gradientTransform="matrix(.4413 0 0 .46075 417.875 619.104)" gradientUnits="userSpaceOnUse" id="d" xlink:href="#a"/><linearGradient y2="295.758" x2="-490.025" y1="350.912" x1="-1027.219" gradientTransform="matrix(.4413 0 0 .46075 417.875 619.104)" gradientUnits="userSpaceOnUse" id="c" xlink:href="#b"/><linearGradient y2="295.758" x2="-490.025" y1="350.912" x1="-1027.219" gradientTransform="matrix(.4413 0 0 .46075 397.812 605.604)" gradientUnits="userSpaceOnUse" id="g" xlink:href="#b"/><linearGradient y2="430.108" x2="-774.989" y1="619.613" x1="-776.403" gradientTransform="matrix(.4413 0 0 .46075 397.812 605.604)" gradientUnits="userSpaceOnUse" id="h" xlink:href="#a"/><linearGradient xlink:href="#b" id="e" gradientUnits="userSpaceOnUse" gradientTransform="matrix(.4413 0 0 .46075 397.812 605.604)" x1="-1027.219" y1="350.912" x2="-490.025" y2="295.758"/><linearGradient xlink:href="#a" id="f" gradientUnits="userSpaceOnUse" gradientTransform="matrix(.4413 0 0 .46075 397.812 605.604)" x1="-776.403" y1="619.613" x2="-774.989" y2="430.108"/></defs><path d="M13 4.998A1.002 1.002 0 0 0 11.998 6v.998H11A1.002 1.002 0 0 0 9.998 8v1.998H2A1.002 1.002 0 0 0 .998 11v3A1.002 1.002 0 0 0 2 15.002h1.049a1.002 1.002 0 0 0 .154-.012c.256 1.108 1.117 2.012 2.297 2.012.606 0 1.127-.286 1.563-.652a1.002 1.002 0 0 0 .937.652h3.404a1.002 1.002 0 0 0 .399-.082l.63-.274a1.002 1.002 0 0 0 .403-.316l.568-.754c.422.794 1.1 1.426 2.053 1.426.894 0 1.547-.56 1.99-1.275.443.715 1.096 1.275 1.99 1.275 1.18 0 2.04-.903 2.297-2.01a1.002 1.002 0 0 0 .145.01H23A1.002 1.002 0 0 0 24.002 14V9A1.002 1.002 0 0 0 23 7.998h-2.998V6A1.002 1.002 0 0 0 19 4.998h-6zm-5.201 9.99a1.002 1.002 0 0 0 .01.002l-.014.006c0-.003.003-.005.004-.008z" fill="#000"/><path d="M13 6v5h-1V8h-1v3H2v3h1.049A2.49 2.49 0 0 1 4 12.504V12h1.422c.026 0 .051-.008.078-.008.027 0 .052.007.078.008H13l.484.969a2.485 2.485 0 0 1 1.973-.98c.827 0 1.553.406 2.008 1.025a2.484 2.484 0 0 1 1.973-.983A2.5 2.5 0 0 1 21.878 14H23V9h-4V6h-6zm1 1h2v4h-2V7zm3 0h1v4h-1V7zM5.5 13a1.5 1.5 0 1 0 0 3 1.5 1.5 0 0 0 0-3zm9.957 0a1.5 1.5 0 1 0 0 3 1.5 1.5 0 0 0 0-3zm3.98 0a1.5 1.5 0 1 0 0 3 1.5 1.5 0 0 0 0-3zm-9.841 1v.445l-.965 1.282L8 16h3.404l.631-.273.965-1.282V14H9.596z" fill="#f00"/><path d="M-19.875 5a1 1 0 0 0-.707.293l-1 1a1 1 0 0 0-.264.465l-.81 3.242h-2.219a1 1 0 0 0-.895.553l-1 2-.105.027-.5.238-.064-.17a1 1 0 0 0-.62-.597l-1.5-.5a1 1 0 0 0-1.316.949v.71l-1.514 2.411-.947.492c-.981.512-.528 2.003.572 1.881l4.5-.5a1 1 0 0 0 .784-.547l.492-.988 1.123-.535.283.283a1 1 0 0 0 .707.293h.008a1 1 0 0 0 .347-.063c.375.912 1.107 1.649 2.145 1.649 1.039 0 1.77-.738 2.145-1.65a1 1 0 0 0 .347.064h3.008a1 1 0 0 0 .334-.059c.369.925 1.107 1.672 2.154 1.672 1.048 0 1.786-.747 2.155-1.672a1 1 0 0 0 .334.059h.023a1 1 0 0 0 .707-.293l1-1A1 1 0 0 0-9.875 14v-1a1 1 0 0 0-.105-.447l-1-2a1 1 0 0 0-.895-.553h-1.219l-.81-3.242a1 1 0 0 0-.264-.465l-1-1A1 1 0 0 0-15.875 5h-1z" fill="#000"/><g><path d="M4.858 54.102c-2.082 0-3.77 1.54-3.77 3.442 0 1.902 1.688 3.445 3.77 3.445s3.769-1.543 3.769-3.445-1.687-3.442-3.77-3.442zm11.005-.189c-2.082 0-3.77 1.541-3.77 3.443 0 1.901 1.688 3.445 3.77 3.445s3.77-1.544 3.77-3.445c0-1.902-1.688-3.443-3.77-3.443zm-24.49-12.48l-2.325.113c-.592.357-.15 1.091-.068 2.037.162 1.866.034 1.94-.36 2.318-.267.212-.59.38-.951.518a45.312 45.312 0 0 0-.71 0c-1.692.488-5.692-.14-5.886.903l-.204 1.536-.53 1.525c-.731.677-.742.68-2.105 1.251-1.232.31-.79.102-1.766.357-.267 0-3.065-1.258-4.023-.535-.914.69.309 1.703.971 2.2 2.477 1.598 2.715 2.477.556 4.143-.528.422-2.165 1.909-1.731 2.637.89.72 3.209-.355 4.006-.66.603-.15 2.682-1.153 3.002-1.064-.098-.356-.911-1.531-.312-2.87.992-2.216 2.019-3.298 4.741-3.298 2.009 0 2.796.77 3.94 1.88 2.394.246 4.701-.076 5.46.222.084.27.683 2.159.26 2.51l-1.551-1.083-2.597-.8c-.18.82.792 1.423 1.187 2.135.17.709.104 1.034-.376 1.743-.508.309-2.017 1.757-1.373 1.815 4.806-.179 5.724-.57 6.602-1.11.79-.396.553-1.451.71-2.173.043-.309.255-1.971.047-2.957-.79-2.91 0-2.264.276-2.555l.98-6.692c-1.614-.088-4.208.155-5.412-.01-.13-.963-.188-3.105-.459-4.036zm-7.578 12.133c-2.082 0-3.769 1.54-3.769 3.443 0 1.901 1.687 3.444 3.77 3.444 2.081 0 3.769-1.543 3.769-3.444 0-1.902-1.688-3.443-3.77-3.443zm14.793-18.555v.006c-1.502.053-1.569.248-1.634.74-.059 3.318.183 6.484.29 9.722-.27.143-.584.247-.93.32.1 2.123-.077 4.25-.05 6.372 1.773 2.226.435 3.763 2.324 4.262.401-.007.854-.039 1.226-.065.41-2.12 2.514-3.733 5.05-3.733 2.83 0 5.125 2.009 5.125 4.488 0 .285-.031 1.301-.09 1.572.215.137.36.445.756.127.233 0 .366.035.438.068-.111-.12-.322-.497-.367-1.498 0-2.849 2.489-5.16 5.56-5.16.913 0 1.776.207 2.536.569l.134-2.12c.164-2.625.16-2.69-.246-4.041-.378-1.26-.462-1.395-1.015-1.673-.456-.228-.984-.3-2.147-.302-2.165-.003-2.397-.21-3.04-2.64-.096-.363-.115-1.227-.113-1.833.003-.46.01-.91-.115-.926-.318-.013-.977.06-1.104.014-.146-.051-.415.484-.13 2.256.101.636.132 1.44.068 1.791l-.119.637-1.003-.092c-1.501-.142-1.601-.206-1.54-.998.047-.6.34-.643-.237-1.015-.236-.152-1.195-.176-1.409-.121-.332.084.011.299.042.825.032.566.003.62-.424.67-1.252.145-1.838-.657-1.658-2.28.146-3.273.258-4.317-.461-5.802-2.255-.047-4.083-.099-5.602-.137v-.003c-.015 0-.028.003-.044.003l-.071-.003zm13.38 24.024c.076.082.101.047 0 0z"/></g></svg>