<svg xmlns="http://www.w3.org/2000/svg" xmlns:xlink="http://www.w3.org/1999/xlink" width="24" height="24" viewBox="0 0 24 24"><defs><linearGradient id="b"><stop offset="0" stop-color="#bbb"/><stop offset="1" stop-color="#fff"/></linearGradient><linearGradient id="a"><stop offset="0" stop-color="#c9c9c9"/><stop offset="1" stop-color="#c9c9c9" stop-opacity="0"/></linearGradient><linearGradient y2="430.108" x2="-774.989" y1="619.613" x1="-776.403" gradientTransform="matrix(.4413 0 0 .46075 417.875 619.104)" gradientUnits="userSpaceOnUse" id="d" xlink:href="#a"/><linearGradient y2="295.758" x2="-490.025" y1="350.912" x1="-1027.219" gradientTransform="matrix(.4413 0 0 .46075 417.875 619.104)" gradientUnits="userSpaceOnUse" id="c" xlink:href="#b"/></defs><path d="M3 6a1 1 0 0 0-.707.293l-1 1a1 1 0 0 0-.264.465l-1 4A1 1 0 0 0 0 12v3a1 1 0 0 0 1 1h1.05a.996.996 0 0 0 .153-.014C2.457 17.096 3.32 18 4.5 18c1.18 0 2.042-.904 2.297-2.012.05.008.101.012.152.012h9.102a.996.996 0 0 0 .152-.014C16.457 17.096 17.32 18 18.5 18c1.18 0 2.042-.904 2.297-2.012.05.008.101.012.152.012H23a1 1 0 0 0 1-1v-3a1 1 0 0 0-1-1h-2V8a1 1 0 0 0-1-1h-7a1 1 0 0 0-1 1v3H9V7a1 1 0 0 0-1-1z" fill="#000"/><path d="M3 7L2 8l-1 4v3h1.05a2.5 2.5 0 0 1 4.9 0h9.1a2.5 2.5 0 0 1 4.9 0H23v-3H8V7zm10 1v3h7V8zM3 8h2v4H2zm1.5 6a1.5 1.5 0 1 0 0 3 1.5 1.5 0 0 0 0-3zm14 0a1.5 1.5 0 1 0 0 3 1.5 1.5 0 0 0 0-3z" fill="#ff0"/></svg>