<svg xmlns="http://www.w3.org/2000/svg" xmlns:xlink="http://www.w3.org/1999/xlink" width="24" height="24" viewBox="0 0 24 24"><defs><linearGradient id="b"><stop offset="0" stop-color="#bbb"/><stop offset="1" stop-color="#fff"/></linearGradient><linearGradient id="a"><stop offset="0" stop-color="#c9c9c9"/><stop offset="1" stop-color="#c9c9c9" stop-opacity="0"/></linearGradient><linearGradient y2="430.108" x2="-774.989" y1="619.613" x1="-776.403" gradientTransform="matrix(.4413 0 0 .46075 417.875 619.104)" gradientUnits="userSpaceOnUse" id="d" xlink:href="#a"/><linearGradient y2="295.758" x2="-490.025" y1="350.912" x1="-1027.219" gradientTransform="matrix(.4413 0 0 .46075 417.875 619.104)" gradientUnits="userSpaceOnUse" id="c" xlink:href="#b"/><linearGradient y2="295.758" x2="-490.025" y1="350.912" x1="-1027.219" gradientTransform="matrix(.4413 0 0 .46075 397.812 605.604)" gradientUnits="userSpaceOnUse" id="g" xlink:href="#b"/><linearGradient y2="430.108" x2="-774.989" y1="619.613" x1="-776.403" gradientTransform="matrix(.4413 0 0 .46075 397.812 605.604)" gradientUnits="userSpaceOnUse" id="h" xlink:href="#a"/><linearGradient xlink:href="#b" id="e" gradientUnits="userSpaceOnUse" gradientTransform="matrix(.4413 0 0 .46075 397.812 605.604)" x1="-1027.219" y1="350.912" x2="-490.025" y2="295.758"/><linearGradient xlink:href="#a" id="f" gradientUnits="userSpaceOnUse" gradientTransform="matrix(.4413 0 0 .46075 397.812 605.604)" x1="-776.403" y1="619.613" x2="-774.989" y2="430.108"/></defs><path d="M14 4a1 1 0 0 0-.707.293l-1 1a1 1 0 0 0-.264.465L11.22 9H9a1 1 0 0 0-.895.553l-1 2L7 11.58l-.5.238-.064-.17a1 1 0 0 0-.62-.597l-1.5-.5A1 1 0 0 0 3 11.5v.71l-1.514 2.411-.947.492c-.981.512-.528 2.003.572 1.881l4.5-.5a1 1 0 0 0 .784-.547l.492-.988 1.123-.535.283.283A1 1 0 0 0 9 15h.008a1 1 0 0 0 .347-.063c.375.912 1.107 1.649 2.145 1.649 1.04 0 1.77-.738 2.145-1.65a1 1 0 0 0 .347.064H17a1 1 0 0 0 .334-.059c.369.925 1.107 1.672 2.154 1.672 1.048 0 1.786-.747 2.155-1.672a1 1 0 0 0 .334.059H22a1 1 0 0 0 .707-.293l1-1A1 1 0 0 0 24 13v-1a1 1 0 0 0-.105-.447l-1-2A1 1 0 0 0 22 9h-1.219l-.81-3.242a1 1 0 0 0-.264-.465l-1-1A1 1 0 0 0 18 4h-1z" fill="#000"/><path d="M14 5l-1 1-1 4H9l-1 2v.21l-2.053.981L5.5 12 4 11.5v1l-1.813 2.883L1 16l4.5-.5.646-1.295 2.07-.988L9 14h.008a2.496 2.496 0 0 1 2.492-2.414A2.496 2.496 0 0 1 13.992 14H17a2.494 2.494 0 0 1 2.488-2.387A2.494 2.494 0 0 1 21.977 14H22l1-1v-1l-1-2h-2l-1-4-1-1h-4zm0 1h2v4h-3l1-4zm3 0h1l1 4h-2V6zm-5.5 6.586a1.5 1.5 0 1 0 0 3 1.5 1.5 0 0 0 0-3zm7.988.027a1.5 1.5 0 1 0 0 3 1.5 1.5 0 0 0 0-3z" fill="#f00"/></svg>