<svg xmlns="http://www.w3.org/2000/svg" xmlns:xlink="http://www.w3.org/1999/xlink" width="24" height="24" viewBox="0 0 24 24"><defs><linearGradient id="b"><stop offset="0" stop-color="#bbb"/><stop offset="1" stop-color="#fff"/></linearGradient><linearGradient id="a"><stop offset="0" stop-color="#c9c9c9"/><stop offset="1" stop-color="#c9c9c9" stop-opacity="0"/></linearGradient><linearGradient y2="430.108" x2="-774.989" y1="619.613" x1="-776.403" gradientTransform="matrix(.4413 0 0 .46075 417.875 619.104)" gradientUnits="userSpaceOnUse" id="d" xlink:href="#a"/><linearGradient y2="295.758" x2="-490.025" y1="350.912" x1="-1027.219" gradientTransform="matrix(.4413 0 0 .46075 417.875 619.104)" gradientUnits="userSpaceOnUse" id="c" xlink:href="#b"/><linearGradient y2="295.758" x2="-490.025" y1="350.912" x1="-1027.219" gradientTransform="matrix(.4413 0 0 .46075 397.812 605.604)" gradientUnits="userSpaceOnUse" id="g" xlink:href="#b"/><linearGradient y2="430.108" x2="-774.989" y1="619.613" x1="-776.403" gradientTransform="matrix(.4413 0 0 .46075 397.812 605.604)" gradientUnits="userSpaceOnUse" id="h" xlink:href="#a"/><linearGradient xlink:href="#b" id="e" gradientUnits="userSpaceOnUse" gradientTransform="matrix(.4413 0 0 .46075 397.812 605.604)" x1="-1027.219" y1="350.912" x2="-490.025" y2="295.758"/><linearGradient xlink:href="#a" id="f" gradientUnits="userSpaceOnUse" gradientTransform="matrix(.4413 0 0 .46075 397.812 605.604)" x1="-776.403" y1="619.613" x2="-774.989" y2="430.108"/></defs><path d="M12 5a1 1 0 0 0-1 1v4H9a1 1 0 0 0-.895.553l-1 2L7 12.58l-.5.238-.064-.17a1 1 0 0 0-.62-.597l-1.5-.5A1 1 0 0 0 3 12.5v.71l-1.514 2.411-.947.492c-.981.512-.528 2.003.572 1.881l4.5-.5a1 1 0 0 0 .784-.547l.492-.988 1.123-.535.283.283A1 1 0 0 0 9 16h.05a.996.996 0 0 0 .153-.014C9.457 17.096 10.32 18 11.5 18c1.18 0 2.042-.904 2.297-2.012.05.008.101.012.152.012h3.091a.996.996 0 0 0 .151-.014c.255 1.11 1.117 2.014 2.297 2.014 1.18 0 2.042-.904 2.297-2.012.05.008.101.012.153.012H22a1 1 0 0 0 .707-.293l1-1A1 1 0 0 0 24 14v-1a1 1 0 0 0-.105-.447l-1-2A1 1 0 0 0 22 10h-2V7a1 1 0 0 0-.293-.707l-1-1A1 1 0 0 0 18 5h-5z" fill="#1b310d"/><path d="M19.488 14a1.5 1.5 0 1 0 0 3 1.5 1.5 0 0 0 0-3zM11.5 14a1.5 1.5 0 1 0 0 3 1.5 1.5 0 0 0 0-3zM17 7h1v4h-1v-1zm-4 0h3v4h-3zm0-1h-1v5H9l-1 2v.21l-2.053.981L5.5 13 4 12.5v1l-1.813 2.883L1 17l4.5-.5.646-1.295 2.07-.988L9 15h.05a2.5 2.5 0 0 1 4.9 0h3.09a2.5 2.5 0 0 1 4.897 0H22l1-1v-1l-1-2h-3V7l-1-1h-1z" fill="#71c837"/></svg>