<svg xmlns="http://www.w3.org/2000/svg" width="24" height="24" viewBox="0 0 24 24"><g font-weight="400" font-size="25.731" font-family="sans-serif" letter-spacing="0" word-spacing="0"><path style="line-height:125%" d="M12.078.002c-3.143 0-5.238 1.354-6.441 2.727A8.068 8.068 0 0 0 4.395 4.63a6.614 6.614 0 0 0-.272.672 3.8 3.8 0 0 0-.07.23c-.01.034-.016.064-.024.102-.008.037-.027.012-.027.232a.997.997 0 0 0 .586.908l4.016 1.827a.997.997 0 0 0 1.378-.66c.107-.417.35-.951.694-1.32.343-.37.732-.604 1.377-.604.32 0 .942.172 1.367.445.425.272.578.552.578.69 0 .255-.043.329-.14.447-.098.117-.299.267-.61.421-.622.31-1.618.59-2.572 1.2a.997.997 0 0 0-.004.002c-.731.47-1.22 1.113-1.443 1.775-.225.662-.224 1.29-.221 1.873V16a.997.997 0 0 0 .576.902c-.937.734-1.582 1.825-1.582 3.098A4.014 4.014 0 0 0 12 23.998 4.014 4.014 0 0 0 15.998 20c0-1.272-.643-2.36-1.578-3.094a.997.997 0 0 0 .584-.906v-1.771c0-.415.026-.707.066-.825.04-.116.012-.117.237-.217l.002-.001c1.32-.565 2.476-1.28 3.328-2.274.854-.996 1.361-2.285 1.361-3.76 0-4.189-3.625-7.15-7.92-7.15z" fill="#293415"/><path style="line-height:125%" d="M12.078 1C6.34 1 5 5.739 5 5.867l4.016 1.826C9.299 6.587 10.2 5.02 12.053 5.02c1.158 0 2.943.897 2.943 2.132 0 1.827-2.214 1.905-3.783 2.909-1.158.746-1.213 1.672-1.207 2.804V16h4v-1.771c0-.85.025-1.57.9-1.956C17.376 11.218 19 9.674 19 7.153 19 3.523 15.938 1 12.078 1zM12 17a3 3 0 1 0 0 6 3 3 0 0 0 0-6z" fill="#ade638"/></g></svg>