<svg xmlns="http://www.w3.org/2000/svg" xmlns:xlink="http://www.w3.org/1999/xlink" width="24" height="24" viewBox="0 0 24 24"><defs><linearGradient id="b"><stop offset="0" stop-color="#bbb"/><stop offset="1" stop-color="#fff"/></linearGradient><linearGradient id="a"><stop offset="0" stop-color="#c9c9c9"/><stop offset="1" stop-color="#c9c9c9" stop-opacity="0"/></linearGradient><linearGradient y2="430.108" x2="-774.989" y1="619.613" x1="-776.403" gradientTransform="matrix(.4413 0 0 .46075 417.875 619.104)" gradientUnits="userSpaceOnUse" id="d" xlink:href="#a"/><linearGradient y2="295.758" x2="-490.025" y1="350.912" x1="-1027.219" gradientTransform="matrix(.4413 0 0 .46075 417.875 619.104)" gradientUnits="userSpaceOnUse" id="c" xlink:href="#b"/></defs><path d="M12.469 0c-.917 0-1.827.377-2.475 1.025A3.542 3.542 0 0 0 8.97 3.5c0 .757.308 1.476.763 2.08-.83.352-1.836.835-2.79 1.357-.535.293-1.034.583-1.444.846-.41.264-.687.405-1.006.801-.562.698-.584 1.564-.373 2.297.212.733.68 1.43 1.467 1.8.43.203 1.023.302 1.56.186.471-.1.947-.338 1.516-.629-.225.889-.51 1.991-.834 3.219-.58 2.198-.893 3.413-1.017 4.283-.125.87.058 1.618.347 2.073.407.64 1.048 1.122 1.799 1.181.75.06 1.466-.325 1.955-.902.227-.268.29-.454.402-.711a12.4 12.4 0 0 0 .342-.899 28.75 28.75 0 0 0 .688-2.365c.058-.237.1-.272.156-.451.056.179.098.214.156.451.21.85.454 1.684.688 2.365.117.341.23.641.342.899.111.257.175.443.402.71.489.578 1.204.962 1.955.903.75-.06 1.392-.542 1.799-1.182.289-.454.472-1.201.347-2.072-.124-.87-.437-2.085-1.017-4.283-.324-1.228-.61-2.33-.834-3.219.569.291 1.045.528 1.516.63.537.115 1.13.016 1.56-.186.787-.37 1.255-1.068 1.467-1.801.211-.733.189-1.599-.373-2.297-.321-.399-.602-.54-1.018-.807a25.35 25.35 0 0 0-1.46-.855 31.452 31.452 0 0 0-2.811-1.361c.446-.602.75-1.312.75-2.061 0-.916-.378-1.827-1.026-2.475A3.542 3.542 0 0 0 12.47 0z" fill="#000"/><path d="M12.469 1a2.5 2.5 0 0 0-2.5 2.5 2.5 2.5 0 0 0 2.5 2.5 2.5 2.5 0 0 0 2.5-2.5 2.5 2.5 0 0 0-2.5-2.5zm2.052 5.33A3.5 3.5 0 0 1 12.47 7a3.5 3.5 0 0 1-2.031-.652C8.851 6.98 5.705 8.673 5.27 9.21c-.583.724-.175 2.136.74 2.566.607.285 1.06.187 2.405-.515.912-.477 1.657-.752 1.654-.612-.003.14-.576 2.418-1.275 5.063-1.159 4.388-1.23 4.876-.793 5.562.571.899 1.47.97 2.146.17.271-.32.82-1.925 1.225-3.568.405-1.643.84-2.08.965-2.229.031-.037.076-.058.162-.058.086 0 .13.02.162.058.125.149.56.586.965 2.229.405 1.643.954 3.249 1.225 3.568.676.8 1.575.729 2.146-.17.436-.686.366-1.174-.793-5.562-.699-2.645-1.272-4.923-1.275-5.063-.003-.14.742.135 1.654.612 1.345.702 1.798.8 2.404.515.916-.43 1.324-1.842.74-2.566-.437-.543-3.636-2.263-5.207-2.88z" fill="#f00"/></svg>