<svg xmlns="http://www.w3.org/2000/svg" width="24" height="24" viewBox="0 0 24 24"><path d="M1 5.002A.998.998 0 0 0 .002 6v1A.998.998 0 0 0 1 7.998h6.002v.684c-.23-.079-.41-.102-.666-.196-.67-.245-1.45-.517-2.36-.48C1.792 8.019.003 9.812.003 12A4.013 4.013 0 0 0 4 15.998h.002v.004H3A2.013 2.013 0 0 0 1.002 18c0 1.092.906 1.998 1.998 1.998h9A2.013 2.013 0 0 0 13.998 18 2.013 2.013 0 0 0 12 16.002h-1.002V14.5c0-.294.056-.362.098-.412a.573.573 0 0 1 .228-.139l7.918-1.98a.998.998 0 0 0 .356-.17l1.25-.938A3 3 0 0 0 22.998 8 3.013 3.013 0 0 0 20 5.002 3.013 3.013 0 0 0 17.002 8c0 .31.137.585.228.873l-5.421.543A.998.998 0 0 0 11 9.002H9.998V7.998H16A.998.998 0 0 0 16.998 7V6A.998.998 0 0 0 16 5.002H9a.998.998 0 0 0-.5.135.998.998 0 0 0-.5-.135H1zm5.998 10.996h1.004v.004H6.998v-.004z" fill="#000"/><path d="M1 6v1h7V6zm7 1v3c-1.39-.139-2.634-1.064-4-1a3 3 0 0 0 0 6h1v2H3a1 1 0 1 0 0 2h9a1 1 0 1 0 0-2h-2v-2.5c0-.956.53-1.328 1-1.5l8-2 1.387-1.04a2 2 0 1 0-1.43-.255L11 10.5V10H9V7zm1 0h7V6H9zm-3 8h3v2H6z" fill="#0f0"/></svg>