<svg xmlns="http://www.w3.org/2000/svg" xmlns:xlink="http://www.w3.org/1999/xlink" width="24" height="24" viewBox="0 0 24 24"><defs><linearGradient id="b"><stop offset="0" stop-color="#bbb"/><stop offset="1" stop-color="#fff"/></linearGradient><linearGradient id="a"><stop offset="0" stop-color="#c9c9c9"/><stop offset="1" stop-color="#c9c9c9" stop-opacity="0"/></linearGradient><linearGradient y2="430.108" x2="-774.989" y1="619.613" x1="-776.403" gradientTransform="matrix(.4413 0 0 .46075 417.875 619.104)" gradientUnits="userSpaceOnUse" id="d" xlink:href="#a"/><linearGradient y2="295.758" x2="-490.025" y1="350.912" x1="-1027.219" gradientTransform="matrix(.4413 0 0 .46075 417.875 619.104)" gradientUnits="userSpaceOnUse" id="c" xlink:href="#b"/></defs><path d="M22 2a1 1 0 0 0-.195.02l-20 4A1 1 0 0 0 1 7v2a1 1 0 0 0 1.164.986l1.615-.27a1 1 0 0 0 .092.284H3a1 1 0 0 0-.707.293l-1 1a1 1 0 0 0-.264.465l-1 4A1 1 0 0 0 0 16v3a1 1 0 0 0 1 1h1.05a.996.996 0 0 0 .153-.014C2.457 21.096 3.32 22 4.5 22c1.18 0 2.042-.904 2.297-2.012.05.008.101.012.152.012h9.102a.996.996 0 0 0 .152-.014C16.457 21.096 17.32 22 18.5 22c1.18 0 2.042-.904 2.297-2.012.05.008.101.012.152.012H23a1 1 0 0 0 1-1v-3a1 1 0 0 0-.135-.5A1 1 0 0 0 24 15v-1a1 1 0 0 0-.135-.5A1 1 0 0 0 24 13v-2a1 1 0 0 0-.805-.98L13.098 8l10.097-2.02A1 1 0 0 0 24 5V3a1 1 0 0 0-1-1zM9 11.42l9.02 1.805a1 1 0 0 0-.02.197V15H9v-3z" fill="#7c3100"/><path d="M18.5 18a1.5 1.5 0 1 0 0 3 1.5 1.5 0 0 0 0-3zm-14 0a1.5 1.5 0 1 0 0 3 1.5 1.5 0 0 0 0-3zM19 13.422V15h4v-1h-1a1 1 0 0 1-.07-.002 1 1 0 0 1-.006 0 1 1 0 0 1-.088-.012 1 1 0 0 1-.008 0 1 1 0 0 1-.033-.006L19 13.422zM3 12h2v4H2l1-4zm0-1l-1 1-1 4v3h1.05a2.5 2.5 0 0 1 4.9 0h9.1a2.5 2.5 0 0 1 4.9 0H23v-3H8v-5H3zm7.549-2.49l-2.354.47a1 1 0 0 1-.03.006l-3.401.567L21.99 13l.01-.02V13h1v-2L10.549 8.51zM22 3L2 7v2l6-1 15-3V3h-1z" fill="#f60"/></svg>