<svg xmlns="http://www.w3.org/2000/svg" width="64" height="64"><path d="M18.642 46.083c-1.977-.503-3.07-2.167-2.517-3.833.288-.868 1.41-1.794 2.494-2.057.65-.158 1.72-.127 2.34.067.735.23 1.226.534 1.689 1.049 1.443 1.606.698 3.866-1.533 4.65-.664.234-1.814.291-2.473.124zm26.418-.33c-2.618-.892-3.126-3.796-.914-5.226.666-.43 1.217-.604 2.088-.658 1.596-.098 3.064.67 3.658 1.914.779 1.632-.22 3.434-2.232 4.031-.705.209-1.89.181-2.6-.06zM23.442 41.71c-.412-1.3-1.98-2.228-3.79-2.241-.9-.007-1.507.124-2.262.49-.541.261-1.345.97-1.44 1.27-.038.117-.112.149-.283.121a58.6 58.6 0 0 0-1.823-.173c-1.991-.169-2.394-.24-2.952-.519-.7-.35-.813-.494-.88-1.12-.08-.748.07-1.515.432-2.213.175-.338.303-.71.303-.882v-.297h22.11l-.001-.71c0-.39-.078-1.89-.171-3.333a120.27 120.27 0 0 1-.172-2.997v-.373l.623.05 2.301.183c1.99.156 3.26.327 3.777.51.442.156.4.13 3.063 1.815 2.373 1.5 2.611 1.63 3.288 1.792.273.066.602.16.73.211.128.051.69.155 1.248.231 2.531.346 4.45.971 5.172 1.685.708.698 1.363 2.734 1.288 4.002-.043.745-.142.968-.529 1.196a4.61 4.61 0 0 0-.589.452c-.32.29-.359.3-1.367.39l-1.037.093-.23-.297c-.856-1.102-2.17-1.662-3.888-1.658-1.463.003-2.538.376-3.428 1.189-.45.41-.87 1.105-.872 1.44-.001.141-.525.151-9.232.172l-9.23.022-.16-.5zm-11.89-6.315c-.549-.027-.62-.05-.666-.22-.028-.105-.051-4.052-.052-8.772l-.001-8.581h20.11l.052.796c.03.437.075 1.783.103 2.99.05 2.193.108 3.342.51 10.101.119 1.984.193 3.629.166 3.656-.053.053-19.18.081-20.222.03zm11.24-6.174v-3.57h4.645v-3.872H14.275v3.872h4.3v7.14h4.216v-3.57z"/></svg>