<svg xmlns="http://www.w3.org/2000/svg" width="64" height="64" version="1"><path d="M27.32 55.004C15.21 52.478 6.814 40.306 8.923 28.336c2.271-12.896 14.29-21.62 26.76-19.423 17.59 3.099 25.539 22.965 14.946 37.357-4.933 6.701-14.99 10.47-23.31 8.734zm13.665-3.63c4.284-1.996 8.395-6.104 10.408-10.4 1.362-2.904 1.577-4.126 1.577-8.97 0-4.843-.215-6.065-1.577-8.97-2.01-4.29-6.119-8.398-10.408-10.408-2.905-1.362-4.127-1.576-8.97-1.576-4.844 0-6.066.214-8.97 1.576-11.848 5.553-15.946 20.412-8.663 31.408 2.26 3.412 5.564 6.041 9.854 7.843 4.71 1.977 11.89 1.761 16.749-.503zm-21.11-4.085c-.23-.373 1.91-2.977 4.988-6.066 5.112-5.134 5.338-5.467 4.369-6.436-.97-.969-1.305-.74-6.49 4.423-4.326 4.309-5.618 5.293-6.193 4.718-.574-.575.408-1.864 4.71-6.185l5.436-5.458-5.44-5.44c-4.32-4.321-5.29-5.59-4.71-6.17.58-.58 1.855.39 6.198 4.714 5.184 5.163 5.52 5.392 6.489 4.423.969-.969.74-1.305-4.423-6.49-4.309-4.326-5.293-5.618-4.718-6.193.575-.574 1.865.408 6.185 4.71l5.459 5.436 5.44-5.44c4.319-4.32 5.59-5.29 6.169-4.71.58.58-.33 1.794-4.414 5.898-2.83 2.842-5.145 5.442-5.145 5.776 0 .335.323.931.718 1.326.563.563 1.894-.455 6.189-4.731 4.33-4.312 5.623-5.298 6.197-4.723.575.574-.348 1.805-4.418 5.894-2.829 2.842-5.144 5.423-5.144 5.735 0 .311 2.315 2.892 5.144 5.735 4.07 4.089 4.993 5.32 4.418 5.893-.574.575-1.867-.41-6.193-4.718-5.184-5.163-5.52-5.392-6.489-4.423-.969.97-.74 1.305 4.423 6.49 4.309 4.326 5.293 5.618 4.718 6.193-.575.575-1.865-.408-6.189-4.714l-5.463-5.44-5.288 5.313c-2.91 2.922-5.478 5.313-5.71 5.313-.23 0-.6-.294-.823-.653zm12.94-15.969c-.744-.822-1.17-.924-1.775-.422-.983.815-1.018 1.83-.096 2.751.54.54.946.478 1.776-.273 1.004-.908 1.01-1.045.095-2.056z"/></svg>