<svg xmlns="http://www.w3.org/2000/svg" width="24" height="24" viewBox="0 0 24 24"><path d="M12 0a12 12 0 0 0-7.406 2.576c-.08.062-.163.118-.24.182a12 12 0 0 0-.526.474c-.103.096-.213.184-.312.284-.017.017-.032.035-.05.052a12 12 0 0 0-.49.543c-.094.11-.194.214-.285.327a12 12 0 0 0-.605.82c-.021.03-.044.06-.065.092A12 12 0 0 0 .924 7.412a12 12 0 0 0-.397 1.11 12 12 0 0 0-.25.984c-.016.074-.036.146-.05.22a12 12 0 0 0-.123.817c-.017.134-.037.266-.05.4A12 12 0 0 0 0 12a12 12 0 0 0 2.576 7.406c.062.08.118.163.182.24a12 12 0 0 0 .474.526c.096.103.184.213.284.312.017.017.035.032.052.05a12 12 0 0 0 .543.49c.11.094.214.194.327.285a12 12 0 0 0 .82.605c.03.021.06.044.092.065a12 12 0 0 0 2.062 1.097 12 12 0 0 0 1.11.397 12 12 0 0 0 .984.25c.074.016.146.036.22.05a12 12 0 0 0 .817.123c.134.017.266.037.4.05A12 12 0 0 0 12 24a12 12 0 0 0 7.406-2.576c.08-.062.163-.118.24-.182a12 12 0 0 0 .526-.474c.103-.096.213-.184.312-.284.017-.017.032-.035.05-.052a12 12 0 0 0 .49-.543c.094-.11.194-.214.285-.326a12 12 0 0 0 .605-.82 12 12 0 0 0 .057-.079l.008-.014a12 12 0 0 0 1.097-2.062 12 12 0 0 0 .397-1.11 12 12 0 0 0 .25-.984c.016-.074.036-.146.05-.22a12 12 0 0 0 .123-.817c.017-.134.037-.266.05-.4A12 12 0 0 0 24 12a12 12 0 0 0-2.576-7.406c-.062-.08-.118-.163-.182-.24a12 12 0 0 0-.474-.526c-.096-.103-.184-.213-.284-.312-.017-.017-.035-.032-.052-.05a12 12 0 0 0-.543-.49c-.11-.094-.214-.194-.326-.285a12 12 0 0 0-.82-.605 12 12 0 0 0-.079-.057l-.014-.008A12 12 0 0 0 16.588.924a12 12 0 0 0-1.11-.397 12 12 0 0 0-.984-.25c-.074-.016-.146-.036-.22-.05a12 12 0 0 0-.817-.123c-.134-.017-.266-.037-.4-.05A12 12 0 0 0 12 0zm0 3a9 9 0 0 1 4.318 1.105L12 8.424 7.687 4.11A9 9 0 0 1 12 3zM4.105 7.682L8.424 12 4.11 16.313A9 9 0 0 1 3 12a9 9 0 0 1 1.105-4.318zm15.784.005A9 9 0 0 1 21 12a9 9 0 0 1-1.105 4.318L15.576 12l4.313-4.313zM12 15.578l4.313 4.312A9 9 0 0 1 12 21a9 9 0 0 1-4.318-1.105L12 15.576z" fill="#293415"/><path d="M12 1A11 11 0 0 0 1 12a11 11 0 0 0 11 11 11 11 0 0 0 11-11A11 11 0 0 0 12 1zm0 1a10 10 0 0 1 10 10 10 10 0 0 1-10 10A10 10 0 0 1 2 12 10 10 0 0 1 12 2zM6.717 4.555l-.748.748 5.283 5.283-.666.666-5.283-5.283-.748.748L9.838 12l-5.283 5.283.748.748 5.283-5.283.666.666-5.283 5.283.748.748L12 14.162l5.283 5.283.748-.748-5.283-5.283.666-.666 5.283 5.283.748-.748L14.162 12l5.283-5.283-.748-.748-5.283 5.283-.666-.666 5.283-5.283-.748-.748L12 9.838 6.717 4.555zM12 11.334l.666.666-.666.666-.666-.666.666-.666z" fill="#ade638"/></svg>