<svg xmlns="http://www.w3.org/2000/svg" width="64" height="64"><path d="M12.484 63.56c0-.308 1.589-5.917 3.531-12.464 3.386-11.412 3.472-11.946 2.102-12.928-.786-.563-5.184-3.97-9.773-7.57L0 24.05l12.165-.01 12.165-.01 3.685-12.324C30.042 4.93 31.99-.295 32.341.1c.352.394 2.153 5.853 4.002 12.13l3.362 11.414 12.566.408c6.911.224 11.957.674 11.214 1-.744.325-5.215 3.604-9.936 7.286-4.72 3.682-8.678 6.757-8.794 6.834-.116.077 1.478 5.695 3.54 12.485C50.36 58.445 51.89 64 51.698 64c-.193 0-4.66-3.336-9.928-7.413l-9.577-7.413-3.93 2.947a1709.59 1709.59 0 0 0-9.855 7.474c-3.258 2.49-5.923 4.274-5.923 3.966z" fill="#e6e6e6"/><path d="M12.484 63.56c0-.308 1.589-5.917 3.531-12.464 3.386-11.412 3.472-11.946 2.102-12.928-.786-.563-5.184-3.97-9.773-7.57L0 24.05l12.165-.01 12.165-.01 3.685-12.324C30.042 4.93 31.99-.295 32.341.1c.352.394 2.153 5.853 4.002 12.13l3.362 11.414 12.566.408c6.911.224 11.957.674 11.214 1-.744.325-5.215 3.604-9.936 7.286-4.72 3.682-8.678 6.757-8.794 6.834-.116.077 1.478 5.695 3.54 12.485C50.36 58.445 51.89 64 51.698 64c-.193 0-4.66-3.336-9.928-7.413l-9.577-7.413-3.93 2.947a1709.59 1709.59 0 0 0-9.855 7.474c-3.258 2.49-5.923 4.274-5.923 3.966z" fill="#d4d4d4"/><path d="M12.484 63.611c0-.29 1.571-5.657 3.492-11.926 1.92-6.269 3.382-11.746 3.248-12.171-.134-.426-4.5-4.079-9.702-8.118L.063 24.05H24.37l3.682-11.88C30.078 5.635 31.961.524 32.236.812c.276.288 2.077 5.543 4.003 11.677l3.502 11.153 12.548.439c6.901.24 12.158.516 11.681.611-.636.127-17.287 12.645-19.266 14.484-.144.134 1.446 5.774 3.533 12.533C50.325 58.47 51.902 64 51.742 64c-.16 0-4.548-3.302-9.751-7.338-5.203-4.035-9.675-7.337-9.938-7.337-.262 0-2.967 1.942-6.01 4.315-11.553 9.008-13.56 10.484-13.56 9.971z" fill="#c2c2c2"/><path d="M12.726 62.872c1.18-3.28 6.636-22.255 6.636-23.078 0-.504-4.347-4.252-9.661-8.33L.039 24.052h24.42l3.608-11.842C30.05 5.695 31.94.542 32.267.757c.325.214 2.092 5.543 3.925 11.842l3.335 11.452H63.976l-9.505 7.444c-5.228 4.095-9.636 7.567-9.796 7.716-.16.15 1.283 5.502 3.207 11.895 1.924 6.392 3.37 11.76 3.214 11.926-.157.167-4.38-2.849-9.385-6.702-5.005-3.853-9.355-7.005-9.668-7.005-.312 0-4.894 3.35-10.183 7.443-5.288 4.093-9.399 6.84-9.134 6.104z" fill="#ff0"/><path d="M12.726 62.872c1.18-3.28 6.636-22.255 6.636-23.078 0-.504-4.347-4.252-9.661-8.33L.039 24.052h24.42l3.608-11.842C30.05 5.695 31.94.542 32.267.757c.325.214 2.092 5.543 3.925 11.842l3.335 11.452H63.976l-9.505 7.444c-5.228 4.095-9.636 7.567-9.796 7.716-.16.15 1.283 5.502 3.207 11.895 1.924 6.392 3.37 11.76 3.214 11.926-.157.167-4.38-2.849-9.385-6.702-5.005-3.853-9.355-7.005-9.668-7.005-.312 0-4.894 3.35-10.183 7.443-5.288 4.093-9.399 6.84-9.134 6.104zm14.438-15.868c2.399-1.862 4.651-3.386 5.006-3.386.354 0 2.807 1.679 5.45 3.731 2.645 2.053 4.948 3.582 5.12 3.399.171-.183-.547-3.027-1.597-6.32-1.05-3.293-1.91-6.235-1.91-6.539 0-.303 2.599-2.531 5.775-4.952l5.774-4.402-7.249-.233-7.249-.232-2.09-6.698-2.092-6.697-2.038 6.522-2.038 6.523-7.51.235-7.509.235 6.19 4.847 6.191 4.847-2.225 7.022c-1.224 3.863-1.806 6.677-1.293 6.254.512-.423 2.894-2.293 5.294-4.156z" fill="#9e9e9e"/><path d="M13.673 60.049c.584-2.087 2.258-7.57 3.719-12.187l2.656-8.392-8.559-6.747c-4.707-3.711-9.246-7.17-10.087-7.685-1.2-.736 1.13-.943 10.827-.962l12.356-.025 3.763-12.026L32.11 0l3.732 12.025 3.733 12.026H63.89l-9.462 7.366c-5.204 4.052-9.546 7.812-9.649 8.357-.102.545 1.324 5.943 3.17 11.997 1.846 6.053 3.25 11.127 3.119 11.275-.13.148-4.065-2.713-8.743-6.357-4.678-3.645-8.999-6.828-9.602-7.075-.635-.26-5.09 2.634-10.604 6.89l-9.509 7.338 1.063-3.793zm14.456-13.474l4.227-3.157 5.366 4.177c2.95 2.296 5.494 4.176 5.65 4.176.157 0-.68-3.206-1.862-7.124l-2.147-7.123 5.818-4.494 5.817-4.495-7.261-.231-7.262-.232-2.179-7.106-2.178-7.106-2.229 7.105-2.229 7.105-7.319.232-7.318.233 5.845 4.455c3.214 2.451 5.844 4.863 5.844 5.36 0 .499-.86 3.602-1.91 6.898-2.295 7.196-2.28 6.996-.406 5.603.829-.615 3.408-2.54 5.733-4.276z" fill="#8c8c8c"/><path d="M13.248 62.228c0-.632 1.53-6.012 3.398-11.956l3.397-10.806-8.556-6.745c-4.706-3.71-9.244-7.167-10.085-7.683-1.2-.736 1.13-.943 10.827-.962l12.356-.025 3.763-12.026L32.11 0l3.732 12.025 3.733 12.026H63.89l-9.462 7.366c-5.204 4.052-9.546 7.812-9.649 8.357-.102.545 1.324 5.943 3.17 11.997 1.846 6.053 3.25 11.127 3.119 11.275-.13.148-4.065-2.713-8.743-6.357-4.678-3.645-8.995-6.827-9.593-7.072-.933-.382-6.93 3.776-17 11.785-1.772 1.41-2.484 1.647-2.484.826zM27.77 46.891c1.472-1.201 3.114-2.457 3.65-2.79.602-.373 3.035 1.022 6.338 3.634 2.948 2.332 5.516 4.075 5.704 3.874.19-.201-.626-3.445-1.812-7.208l-2.155-6.842 5.793-4.512 5.793-4.512-7.199-.408-7.199-.407-1.972-6.262c-1.085-3.443-2.163-6.46-2.396-6.702-.233-.242-1.368 2.655-2.522 6.437l-2.1 6.876-7.4.233-7.4.233 5.296 4.076a908.345 908.345 0 0 0 5.977 4.576c.374.275-.21 3.504-1.297 7.176s-1.977 6.883-1.977 7.136c0 .546 3.157-1.569 6.878-4.608z" fill="#7a7a7a"/><path d="M13.248 62.228c0-.632 1.53-6.012 3.398-11.956l3.397-10.806-8.556-6.745c-4.706-3.71-9.244-7.167-10.085-7.683-1.2-.736 1.13-.943 10.827-.962l12.356-.025 3.763-12.026L32.11 0l3.732 12.025 3.733 12.026H63.89l-9.462 7.366c-5.204 4.052-9.546 7.812-9.649 8.357-.102.545 1.324 5.943 3.17 11.997 1.846 6.053 3.25 11.127 3.119 11.275-.13.148-4.065-2.713-8.743-6.357-4.678-3.645-8.995-6.827-9.593-7.072-.933-.382-6.93 3.776-17 11.785-1.772 1.41-2.484 1.647-2.484.826zM27.77 46.891c1.472-1.201 3.114-2.457 3.65-2.79.602-.373 3.035 1.022 6.338 3.634 2.948 2.332 5.516 4.075 5.704 3.874.19-.201-.626-3.445-1.812-7.208l-2.155-6.842 5.793-4.512 5.793-4.512-7.199-.408-7.199-.407-1.972-6.262c-1.085-3.443-2.163-6.46-2.396-6.702-.233-.242-1.368 2.655-2.522 6.437l-2.1 6.876-7.4.233-7.4.233 5.296 4.076a908.345 908.345 0 0 0 5.977 4.576c.374.275-.21 3.504-1.297 7.176s-1.977 6.883-1.977 7.136c0 .546 3.157-1.569 6.878-4.608z" fill="#686868"/><path d="M13.261 62.67c.008-.39 1.544-5.826 3.413-12.082 1.87-6.256 3.326-11.43 3.235-11.497-.09-.067-4.048-3.13-8.795-6.804-4.747-3.676-9.218-6.94-9.935-7.256-.718-.315 4.304-.756 11.16-.98l12.466-.408 3.463-11.298C30.173 6.13 32.01 1.36 32.352 1.746c.341.385 2.044 5.561 3.784 11.502l3.163 10.803h24.552l-9.634 7.467c-5.462 4.234-9.625 8.03-9.613 8.765.01.713 1.53 6.18 3.377 12.15l3.358 10.853-2.04-1.421c-1.122-.782-5.267-3.923-9.21-6.981-3.943-3.058-7.515-5.56-7.938-5.56-.687 0-9.842 6.715-16.419 12.042-1.366 1.107-2.478 1.694-2.47 1.304zm13.953-15.232l5.09-3.925 5.758 4.543c3.166 2.498 5.757 4.236 5.757 3.863 0-.373-.86-3.375-1.91-6.67-1.051-3.297-1.911-6.454-1.911-7.017 0-.564 2.605-3.054 5.789-5.534l5.789-4.51-7.447-.234-7.447-.234-2.298-7.338-2.298-7.337-2.31 7.513-2.312 7.514-7.29.232-7.292.231 5.724 4.399c3.148 2.42 5.848 4.508 5.998 4.64.151.134-.772 3.57-2.05 7.637-1.345 4.278-1.926 7.133-1.378 6.774.522-.342 3.239-2.388 6.038-4.547z" fill="#575757"/><path d="M13.248 62.588c0-.343 1.584-5.692 3.519-11.887 1.935-6.194 3.397-11.376 3.248-11.515C18.075 37.374 1.379 24.821.74 24.693c-.477-.095 4.78-.37 11.681-.611l12.548-.439 3.566-11.414L32.101.815l3.63 11.618 3.63 11.618 12.355.025c9.72.02 12.032.225 10.834.966-.838.518-5.365 3.974-10.06 7.68l-8.539 6.74 3.418 11.134c1.88 6.124 3.257 11.306 3.06 11.517-.197.21-4.41-2.751-9.364-6.58-5.39-4.168-9.329-6.695-9.813-6.296-5.72 4.72-18.004 13.828-18.004 13.35zm13.903-15.062l5.114-3.991L38 48.06c3.155 2.49 5.905 4.526 6.111 4.526.206 0-.639-3.199-1.878-7.108-1.239-3.91-2.163-7.377-2.053-7.706.11-.329 2.753-2.634 5.874-5.121l5.676-4.524H37.066l-2.068-6.726c-1.138-3.7-2.304-7.004-2.592-7.345-.288-.34-1.51 2.675-2.716 6.7l-2.192 7.318-7.47.23-7.47.231 6.04 4.484c4.957 3.679 5.957 4.777 5.57 6.115l-2.202 7.552c-1.046 3.588-1.373 5.707-.828 5.377.495-.3 3.2-2.342 6.013-4.537z" fill="#454545"/><path d="M70.465 116.518c0-.421 2.071-6.982 4.603-14.58 2.533-7.597 4.445-13.953 4.25-14.123-2.539-2.223-24.383-17.62-25.22-17.777-.623-.117 6.255-.455 15.285-.75L85.8 68.75l4.665-14 4.666-14L99.882 55l4.748 14.25 16.167.03c12.719.024 15.743.277 14.175 1.186-1.096.635-7.02 4.874-13.164 9.42l-11.17 8.267 4.472 13.656c2.46 7.511 4.26 13.868 4.003 14.126-.258.258-5.771-3.374-12.252-8.07-7.053-5.113-12.206-8.212-12.84-7.722-7.485 5.788-23.556 16.96-23.556 16.375zm18.19-18.474l6.691-4.896 7.506 5.551c4.128 3.053 7.727 5.551 7.996 5.551.27 0-.836-3.923-2.457-8.719-1.621-4.795-2.83-9.048-2.687-9.452.143-.403 3.602-3.23 7.686-6.28l7.426-5.549H101.63L98.923 66c-1.489-4.538-3.015-8.592-3.392-9.009-.376-.417-1.975 3.28-3.553 8.217l-2.869 8.976-9.774.283-9.775.283 7.905 5.5c6.485 4.512 7.794 5.86 7.286 7.5-.34 1.1-1.636 5.269-2.88 9.264-1.369 4.4-1.796 7-1.083 6.594.647-.368 4.187-2.872 7.867-5.564z" stroke="#000" stroke-width="1.1" transform="matrix(.76428 0 0 .81529 -40.606 -32.408)"/></svg>