<svg xmlns="http://www.w3.org/2000/svg" width="64" height="64"><path d="M22.577 61.102C5.08 55.489-3.829 35.045 4.14 18.79 11.8 3.168 30.252-3.167 45.728 4.513c15.345 7.615 21.533 25.44 14.085 40.574-6.874 13.966-22.572 20.718-37.236 16.015z" fill="#e69800"/><path d="M24.384 63.452C8.675 59.514-2.2 43.046.378 27.098 2.413 14.503 10.586 5.284 23.216 1.337 36.135-2.7 50.645 2.634 58.38 14.265c14.077 21.167.23 48.593-25.09 49.694-3.228.14-7.236-.088-8.906-.507zm5.776-16.456V33.64H4.34v1.935c0 3.307 3.104 10.462 6.301 14.524 3.264 4.146 8.126 7.432 13.483 9.113 6.415 2.013 6.036 2.781 6.036-12.216zM44 57.51c7.388-3.53 13.438-11.867 15.467-21.316l.549-2.553H34.854v26.837l2.543-.514c1.399-.283 4.37-1.387 6.604-2.454zM30.16 16.66V3.61l-2.934.514C16.326 6.037 6.33 15.953 4.647 26.526l-.507 3.186h26.02V16.66zm29.239 10.497c-.827-4.652-4.788-12.184-8.11-15.422-3.432-3.344-9.578-6.69-13.892-7.562l-2.543-.514v26.052H59.853l-.454-2.554z"/></svg>