<svg xmlns="http://www.w3.org/2000/svg" width="64" height="64" version="1"><path d="M61 32a29 23.5 0 1 1-58 0 29 23.5 0 1 1 58 0z" fill="#fff"/><path d="M22.27 55.802c-7.143-2.192-14.284-6.967-16.312-10.91C.807 34.876.705 28.971 5.527 19.885c1.627-3.066 3.93-5.35 7.502-7.437 6.604-3.859 12.675-5.673 18.983-5.673 9.4 0 21.913 5.69 25.444 11.57C59.986 22.558 62 28.612 62 32.005c0 3.394-2.014 9.449-4.544 13.661-1.482 2.468-5.841 5.884-9.909 7.764-8.842 4.087-17.146 4.866-25.277 2.372zm20.012-4.416c11.52-4.675 17.286-14.877 14.164-25.06-1.489-4.856-5.438-9.579-10.366-12.398-1.645-.941-3.192-1.711-3.437-1.711-.245 0 .079.831.72 1.848.641 1.016 1.166 2.697 1.166 3.735 0 2.223-1.416 4.806-2.635 4.806-1.042 0-1.079-.65-.158-2.814.59-1.387.527-2.083-.4-4.401-.842-2.104-.935-2.841-.394-3.126 1.368-.718-2.467-1.654-7.804-1.904-6.242-.294-12.528.868-11.331 2.093.507.519.434 1.062-.31 2.283-.968 1.591-.958 5.004.02 7.003.321.655.143.866-.732.866-2.63 0-3.527-5.56-1.393-8.632.672-.967.997-1.757.722-1.757-.274 0-2.056.974-3.96 2.165-3.89 2.432-7.636 6.797-9.282 10.815-1.536 3.75-1.388 10.117.323 13.846 2.858 6.225 8.999 11.28 16.134 13.281 2.714.76 4.665.929 9.262.798 5.112-.146 6.296-.358 9.69-1.736zM21.235 49.53c0-1.237 2.194-11.573 4.394-20.698 1.709-7.088 1.914-8.612 1.342-9.956-1.137-2.67-.55-3.093 4.17-3.003 4.744.09 5.62.68 4.57 3.074-.663 1.516-.735 1.115 3.843 21.47 1.133 5.033 2.06 9.319 2.061 9.523.004.672-2.17.386-2.922-.384-.405-.415-2.25-1.869-4.101-3.23l-3.364-2.476-4.269 3.226c-4.323 3.268-5.724 3.869-5.724 2.454zm5.815-5.205l2.612-2.028-1.626-1.188c-.894-.653-1.841-1.188-2.106-1.188-.264 0-.786 1.058-1.158 2.35-.373 1.293-.815 2.74-.982 3.216-.477 1.357.434 1.032 3.26-1.162zm11.425 1.162c-.17-.476-.557-1.83-.86-3.007-.305-1.177-.715-2.279-.914-2.447-.198-.169-1.064.291-1.924 1.022l-1.563 1.328 2.281 1.985c2.444 2.126 3.478 2.514 2.98 1.12zm-5.055-6.352c.985-.704 1.791-1.527 1.791-1.828 0-.857-3.024-3.322-4.076-3.322-1.052 0-4.077 2.465-4.077 3.322 0 .602 3.288 3.11 4.077 3.11.27 0 1.3-.577 2.285-1.282zm-4.615-7.437c0-.375-.393-.682-.873-.682-.555 0-.874.474-.874 1.298 0 1.097.135 1.202.874.681.48-.339.873-.922.873-1.297zm6.549.555c-.291-1.293-.975-1.599-1.614-.72-.384.527.684 1.957 1.462 1.957.237 0 .305-.557.152-1.237zm-2.372-3.045c1.22-.938 1.346-2.74.413-5.888-.575-1.94-.841-2.198-2.267-2.198-1.859 0-2.177.501-2.696 4.255-.303 2.19-.178 2.87.673 3.669 1.274 1.196 2.467 1.246 3.877.162zm-10.034-9.47c-.537-1.524-.492-2.226.238-3.711 1.009-2.051 3.215-2.718 2.376-.718-.257.612-.463 2.282-.457 3.71.011 3.14-1.164 3.532-2.157.718zm14.928-.526c.238-1.521.118-2.812-.325-3.516-.953-1.512.058-2.309 1.368-1.079 1.513 1.42 1.87 4.264.721 5.753-1.521 1.972-2.185 1.536-1.764-1.158z" fill="red"/></svg>