<svg xmlns="http://www.w3.org/2000/svg" width="64" height="64"><path d="M1.503 57.069c.826-1.193 7.821-13.17 15.544-26.614C24.77 17.01 31.481 5.589 31.961 5.075c.65-.698 4.799 6.05 16.36 26.613l15.49 27.55H0l1.503-2.17z" fill="#d0d0d0"/><path d="M1.027 58.589C1.96 56.288 32.105 4.827 32.52 4.827c.284 0 6.652 10.912 14.152 24.248 7.5 13.336 14.467 25.579 15.482 27.205L64 59.237H32.382c-17.39 0-31.5-.292-31.355-.648z" fill="#b9b9b9"/><path d="M1.027 58.589C1.96 56.288 32.105 4.827 32.52 4.827c.284 0 6.652 10.912 14.152 24.248 7.5 13.336 14.467 25.579 15.482 27.205L64 59.237H32.382c-17.39 0-31.5-.292-31.355-.648z" fill="#a3a3a3"/><path d="M3.413 54.63C14.723 34.648 32.127 4.852 32.495 4.84c.375-.012 29.757 51.623 30.565 53.716.145.374-13.788.68-30.996.68H.804l2.61-4.608z" fill="#00f"/><path d="M3.413 54.63C14.723 34.648 32.127 4.852 32.495 4.84c.375-.012 29.757 51.623 30.565 53.716.145.374-13.788.68-30.996.68H.804l2.61-4.608zm53.887-.716c-12.887-23.16-24.553-43.566-24.908-43.567-.243 0-6.076 9.847-12.964 21.882C12.541 44.265 6.4 54.91 5.781 55.886L4.657 57.66H59.384L57.3 53.914z" fill="#767676"/><path d="M2.316 56.674c.852-1.41 7.666-13.208 15.142-26.219C24.935 17.444 31.454 6.366 31.945 5.838c.83-.893 8.875 12.71 27.942 47.245l3.397 6.154H.767l1.549-2.563zm56.801.245c-.61-1.72-26.321-47.306-26.696-47.332-.369-.026-26.813 45.585-27.45 47.347-.158.433 10.758.726 27.073.726 16.729 0 27.234-.288 27.073-.741z" fill="#606060"/><path d="M1.974 57.463c.613-.976 6.52-11.178 13.127-22.671 6.607-11.493 13.245-22.951 14.751-25.463l2.74-4.566L45.594 27.86c7.152 12.704 14.063 24.96 15.358 27.237l2.354 4.14H.86l1.114-1.774zm57.275-.324c0-.88-26.385-47.568-26.887-47.574C31.87 9.558 4.84 56.31 4.84 57.168c0 .27 12.242.492 27.205.492 14.963 0 27.205-.234 27.205-.521z" fill="#494949"/><path d="M1.974 57.463c.613-.976 6.52-11.178 13.127-22.671 6.607-11.493 13.245-22.951 14.751-25.463l2.74-4.566L45.594 27.86c7.152 12.704 14.063 24.96 15.358 27.237l2.354 4.14H.86l1.114-1.774zm56.179-3.154c-1.074-1.844-7.14-12.578-13.48-23.854-6.341-11.276-11.777-20.734-12.08-21.016-.302-.282-6.828 10.452-14.503 23.854L4.136 57.66h55.968l-1.951-3.351z"/></svg>