<svg xmlns="http://www.w3.org/2000/svg" width="64" height="64"><path d="M2 32V2h60v60H2V32zm43.012 13.765L32.015 33.059 19.176 45.58C12.115 52.468 6.337 58.186 6.337 58.287c0 .1 11.626.184 25.836.184H58.01L45.012 45.765zM17.906 20.003C10.956 13.207 5.021 7.647 4.72 7.647c-.303 0-.55 11.355-.55 25.233v25.233l13.187-12.878 13.188-12.877-12.638-12.355zm41.925 12.18V6.604L46.533 19.574l-13.3 12.972 13.119 12.581c7.215 6.92 13.2 12.595 13.299 12.61.099.015.18-11.484.18-25.553zm-2.168-26.47c0-.1-11.626-.184-25.836-.184H5.99l12.997 12.706 12.997 12.706L44.824 18.42c7.061-6.887 12.839-12.605 12.839-12.706z"/></svg>